<?xml version="1.0" standalone="no"?>
<!DOCTYPE svg PUBLIC "-//W3C//DTD SVG 1.1//EN" "http://www.w3.org/Graphics/SVG/1.1/DTD/svg11.dtd" >
<svg>
<metadata>
Created by FontForge 20120731 at Fri Aug  5 16:36:28 2016
 By www
Copyright (c) 2014 by Fontfabric LLC. All rights reserved.
</metadata>
<defs>
<font id="GloberW01-SemiBold" horiz-adv-x="250" >
  <font-face 
    font-family="GloberW01-SemiBold"
    font-weight="600"
    font-stretch="normal"
    units-per-em="1000"
    panose-1="1 0 0 0 0 0 0 0 0 0"
    ascent="800"
    descent="-200"
    x-height="526"
    cap-height="720"
    bbox="-40 -250.286 1050 944.308"
    underline-thickness="50"
    underline-position="-125"
    unicode-range="U+0020-2122"
  />
<missing-glyph horiz-adv-x="618" 
d="M37 0v720h538v-720h-538zM462 493q0 36 -12 62.5t-33.5 43.5t-51.5 25.5t-65 8.5q-31 0 -54 -4.5t-40 -9.5q-19 -6 -34 -14q-3 -37 25 -57q10 5 24 9q12 4 28.5 7t38.5 3q42 0 67 -17.5t25 -59.5q0 -30 -9 -48.5t-23 -32t-29.5 -26.5t-29.5 -31t-23 -45t-9 -70l8 -4
q10 -4 23 -4q14 0 24 4q4 2 7 4q0 32 10.5 52.5t26.5 36t34.5 29t34.5 31.5t26.5 43t10.5 64zM330 161q-5 1 -11 3q-5 1 -13 2t-18 1q-11 0 -18.5 -1t-12.5 -2q-6 -2 -10 -3v-75q4 -2 10 -3q5 -1 12.5 -1.5t18.5 -0.5q10 0 18 0.5t13 1.5q6 1 11 3v75z" />
    <glyph glyph-name=".notdef" horiz-adv-x="618" 
d="M37 0v720h538v-720h-538zM462 493q0 36 -12 62.5t-33.5 43.5t-51.5 25.5t-65 8.5q-31 0 -54 -4.5t-40 -9.5q-19 -6 -34 -14q-3 -37 25 -57q10 5 24 9q12 4 28.5 7t38.5 3q42 0 67 -17.5t25 -59.5q0 -30 -9 -48.5t-23 -32t-29.5 -26.5t-29.5 -31t-23 -45t-9 -70l8 -4
q10 -4 23 -4q14 0 24 4q4 2 7 4q0 32 10.5 52.5t26.5 36t34.5 29t34.5 31.5t26.5 43t10.5 64zM330 161q-5 1 -11 3q-5 1 -13 2t-18 1q-11 0 -18.5 -1t-12.5 -2q-6 -2 -10 -3v-75q4 -2 10 -3q5 -1 12.5 -1.5t18.5 -0.5q10 0 18 0.5t13 1.5q6 1 11 3v75z" />
    <glyph glyph-name=".null" horiz-adv-x="0" 
 />
    <glyph glyph-name="nonmarkingreturn" horiz-adv-x="333" 
 />
    <glyph glyph-name="space" unicode=" " horiz-adv-x="225" 
 />
    <glyph glyph-name="exclam" unicode="!" horiz-adv-x="268" 
d="M80 713q5 1 13 3q7 2 17 3t24 1t23.5 -1t16.5 -3q8 -2 14 -3l-17 -521q-4 -2 -9 -4t-12 -3t-15 -1q-9 0 -16 1t-12 3q-6 2 -10 4zM185 7q-6 -2 -13 -4q-14 -3 -38 -3q-27 0 -39 3q-7 2 -12 4v94l12 3q6 2 15.5 3t23.5 1q13 0 22 -1t16 -3t13 -3v-94z" />
    <glyph glyph-name="quotedbl" unicode="&#x22;" horiz-adv-x="360" 
d="M57 713l12 3q6 2 15 3t22 1q12 0 21.5 -1t15.5 -3q7 -2 13 -3l-17 -201q-4 -2 -8 -3q-5 -1 -11 -1.5t-14 -0.5q-14 0 -24 2q-4 1 -8 3zM204 713l12 3q6 2 15 3t23 1q12 0 21 -1t15 -3q7 -2 13 -3l-17 -201q-4 -2 -8 -3q-10 -2 -24 -2q-15 0 -25 2q-5 1 -8 3z" />
    <glyph glyph-name="numbersign" unicode="#" horiz-adv-x="663" 
d="M488 616q20 7 44 7q25 0 43 -7l-36 -125h78q7 -15 7 -37q0 -11 -1.5 -22t-5.5 -21h-100l-59 -209h76q1 -1 4 -11.5t3 -28.5q0 -17 -3 -27.5t-4 -12.5h-98l-32 -114q-19 -8 -43 -8q-25 0 -44 8l32 114h-138l-32 -114q-19 -8 -45 -8q-23 0 -41 8l32 114h-83q0 1 -3 11.5
t-3 28.5q0 20 3 29.5t3 10.5h105l59 209h-80q-4 10 -5 20t-1 21t1 21t5 18h102l36 125q10 4 20.5 5.5t21.5 1.5q26 0 44 -7l-35 -125h138zM234 202h138l58 209h-137z" />
    <glyph glyph-name="dollar" unicode="$" horiz-adv-x="561" 
d="M239 782q5 1 11 3q5 2 13 3t18 1q11 0 19 -1t13 -3q6 -2 11 -3l-8 -115q36 -2 65.5 -5.5t51.5 -8.5q26 -5 46 -11q0 -1 -1 -12t-6 -28q-5 -16 -12.5 -24t-8.5 -9q-19 6 -42 10q-20 4 -46.5 7t-57.5 3q-75 0 -114 -22.5t-39 -73.5q0 -37 27 -57t68 -33.5t88 -25.5
t88 -33.5t68 -57t27 -96.5q0 -82 -50 -130t-153 -56l9 -126q-5 -2 -11 -4q-11 -3 -31 -3q-22 0 -32 3q-6 2 -11 4l8 124q-44 2 -79 7.5t-61 12.5q-30 8 -53 18q0 1 -0.5 11t4.5 28q5 17 11 26t7 10q28 -8 59 -14q26 -5 60 -9.5t69 -4.5q72 0 111 21.5t39 75.5q0 31 -15.5 51
t-41 33t-58 21.5t-66.5 18t-66.5 21.5t-58 31.5t-41 49t-15.5 73.5q0 80 49 127t146 56l-8 116v0z" />
    <glyph glyph-name="percent" unicode="%" horiz-adv-x="762" 
d="M231 -4q-4 -2 -10 -3q-11 -3 -30 -3t-29 3q-6 1 -10 3l387 700l9 3q5 1 12 2t18 1q10 0 17 -1t12 -2q5 -2 10 -3zM179 345q-66 0 -101.5 39.5t-35.5 133.5q0 93 35.5 133t101.5 40q64 0 100.5 -39.5t36.5 -133.5t-36.5 -133.5t-100.5 -39.5zM179 633q-15 0 -26.5 -5
t-20 -18t-12.5 -35.5t-4 -56.5q0 -35 4 -57.5t12.5 -35t20 -17t26.5 -4.5q14 0 25.5 4.5t19.5 17t12.5 35t4.5 57.5q0 34 -4.5 56.5t-12.5 35.5t-19.5 18t-25.5 5zM585 -10q-65 0 -100.5 39.5t-35.5 133.5q0 93 35.5 133t100.5 40q64 0 100.5 -39.5t36.5 -133.5
t-36.5 -133.5t-100.5 -39.5zM585 278q-15 0 -26.5 -5t-19.5 -18t-12.5 -35.5t-4.5 -56.5q0 -35 4.5 -57.5t12.5 -35t19.5 -17t26.5 -4.5t26.5 4.5t19.5 17t12 35t4 57.5q0 34 -4 56.5t-12 35.5t-19.5 18t-26.5 5z" />
    <glyph glyph-name="ampersand" unicode="&#x26;" horiz-adv-x="642" 
d="M319 690q71 0 111 -33.5t40 -90.5q0 -38 -14 -68.5t-37 -56t-54 -47t-65 -42.5q26 -44 63 -86.5t84 -80.5q18 25 30 52.5t21 53.5q23 3 44 -5.5t33 -24.5q-10 -26 -27 -56.5t-43 -63.5q27 -17 55.5 -32.5t59.5 -29.5q2 -23 -11 -46t-33 -34q-36 14 -69.5 33t-65.5 40
q-10 -10 -28 -24t-43.5 -27t-59 -22t-73.5 -9q-37 0 -72 10t-62 31t-43.5 53.5t-16.5 77.5q0 42 16 75.5t39 59t48.5 43.5t44.5 28q-19 42 -28 81.5t-9 75.5q0 74 40 119.5t125 45.5zM314 623q-33 0 -53 -22.5t-20 -69.5q0 -55 28 -119q24 14 44 29t35 32.5t23 38.5t8 47
q0 29 -16.5 46.5t-48.5 17.5zM253 71q48 0 81 16.5t50 28.5q-51 44 -92 92.5t-70 99.5q-12 -8 -27 -20.5t-27.5 -29.5t-21 -37.5t-8.5 -45.5q0 -47 30.5 -75.5t84.5 -28.5z" />
    <glyph glyph-name="quotesingle" unicode="'" horiz-adv-x="212" 
d="M57 713q4 1 11 3q6 2 15 3t23 1q12 0 21.5 -1t15.5 -3l12 -3l-17 -201q-4 -2 -8 -3q-10 -2 -24 -2t-24 2q-4 1 -8 3z" />
    <glyph glyph-name="parenleft" unicode="(" horiz-adv-x="293" 
d="M230 800q18 -10 25 -19q4 -5 7 -10q-31 -54 -56 -123q-21 -60 -38.5 -142.5t-17.5 -185.5t17.5 -186t38.5 -142q25 -70 56 -123q-3 -5 -7 -10q-9 -11 -24 -19q-17 -8 -30 -10q-7 -1 -13 -1q-38 65 -68 142q-26 66 -47 155t-21 194q0 104 21 193.5t47 155.5q30 77 68 142
q5 0 12 -1q13 -2 30 -10z" />
    <glyph glyph-name="parenright" unicode=")" horiz-adv-x="294" 
d="M144 320q0 103 -18 185.5t-39 142.5q-25 69 -56 123q3 5 7 10q6 7 26 19q8 5 16 7t14 3q7 1 12 1q38 -65 68 -142q26 -66 47 -155.5t21 -193.5q0 -105 -21 -194t-47 -155q-30 -77 -68 -142q-6 0 -13 1q-6 1 -14 3t-16 7q-16 8 -25 19q-4 5 -7 10q31 53 56 123
q21 59 39 142t18 186z" />
    <glyph glyph-name="asterisk" unicode="*" horiz-adv-x="341" 
d="M144 708q13 5 27 4.5t26 -5.5v-79l77 25q16 -19 16 -51l-76 -25l49 -66q-8 -9 -20 -17.5t-25 -13.5l-47 65l-47 -65q-14 5 -25.5 13.5t-19.5 17.5l47 66l-75 25q0 30 16 51l77 -25v80z" />
    <glyph glyph-name="plus" unicode="+" horiz-adv-x="468" 
d="M55 253q-2 5 -3 10q-3 9 -3 27t3 27q1 5 3 10h142v142q5 1 10 3q5 1 11.5 2t15.5 1q8 0 15 -1t12 -2q5 -2 10 -3v-142h142q1 -5 3 -10q1 -5 2 -12t1 -15q0 -9 -1 -15.5t-2 -11.5q-2 -5 -3 -10h-142v-142q-5 -2 -10 -3q-9 -3 -27 -3t-27 3q-5 1 -10 3v142h-142z" />
    <glyph glyph-name="comma" unicode="," horiz-adv-x="235" 
d="M61 -100q9 11 17 26q7 13 12.5 31t7.5 43q-9 0 -15 1t-10 3t-8 3v94q5 1 13 3q7 2 16.5 3t22.5 1t22.5 -1t16.5 -3q8 -2 13 -3v-63q0 -41 -11 -71.5t-25 -50.5q-16 -24 -36 -41z" />
    <glyph glyph-name="hyphen" unicode="-" horiz-adv-x="358" 
d="M75 253q-2 5 -3 10q-3 9 -3 27t3 27q1 5 3 10h208q1 -5 3 -10q1 -5 2 -12t1 -15q0 -9 -1 -15.5t-2 -11.5q-2 -5 -3 -10h-208z" />
    <glyph glyph-name="period" unicode="." horiz-adv-x="234" 
d="M169 7q-5 -2 -13 -4q-14 -3 -39 -3q-28 0 -40 3q-8 2 -12 4v94l12 3q6 2 16 3t24 1q13 0 22.5 -1t16.5 -3q8 -2 13 -3v-94z" />
    <glyph glyph-name="slash" unicode="/" horiz-adv-x="475" 
d="M355 743q6 1 13 3q6 2 15 3t21 1t21.5 -1t15.5 -3q7 -2 13 -3l-334 -783q-6 -2 -13 -4q-14 -3 -37 -3q-25 0 -37 3q-7 2 -12 4z" />
    <glyph glyph-name="zero" unicode="0" horiz-adv-x="618" 
d="M308 -10q-60 0 -106 19.5t-77.5 62t-48 109t-16.5 159.5q0 92 16.5 158.5t48 109t77.5 62.5t106 20t106.5 -19.5t78.5 -62t48.5 -109t16.5 -159.5t-16.5 -159.5t-48.5 -109t-78.5 -62t-106.5 -19.5zM308 605q-35 0 -61.5 -12t-44.5 -42.5t-27 -81.5t-9 -129t9 -129
t27 -81t44.5 -42.5t61.5 -12.5t61.5 12.5t44.5 42.5t27 81t9 129t-9 129t-27 81.5t-44.5 42.5t-61.5 12z" />
    <glyph glyph-name="one" unicode="1" horiz-adv-x="414" 
d="M30 539q63 17 109 49t82 85l12 3q6 2 15 3t22 1q12 0 21.5 -1t15.5 -3l12 -3v-666q-5 -2 -12 -4q-12 -3 -38 -3q-25 0 -38 3q-8 2 -13 4v410q0 40 1.5 72.5t3.5 57.5q-35 -35 -79.5 -57.5t-89.5 -33.5q-15 14 -22 36.5t-2 46.5z" />
    <glyph glyph-name="two" unicode="2" horiz-adv-x="532" 
d="M102 582q-16 13 -23.5 31t-4.5 41q23 10 52 18q25 7 58.5 12.5t74.5 5.5q45 0 85 -10t69.5 -32t46.5 -57t17 -84q0 -47 -13 -80.5t-38 -60t-60 -50t-80 -50.5q-22 -14 -47 -28t-46 -32t-34.5 -40.5t-13.5 -53.5q0 -14 2 -22h312q10 -16 10 -45q0 -25 -10 -45h-405
q-2 9 -3 20q-3 18 -3 47q0 58 17 99.5t45 72.5t62 54t69 46q34 22 59 40.5t41.5 36.5t24.5 39t8 49q0 46 -31 74.5t-100 28.5q-28 0 -53 -4t-45 -9q-23 -5 -43 -12z" />
    <glyph glyph-name="three" unicode="3" horiz-adv-x="525" 
d="M468 182q0 -43 -13.5 -78.5t-42.5 -60.5t-76.5 -39t-114.5 -14q-42 0 -73.5 5t-54.5 12q-26 8 -46 18q-1 20 5.5 40.5t19.5 33.5l15 -5t31 -8t43.5 -7t52.5 -3q78 0 115 28t37 91q0 34 -10 57t-29 37t-45 20t-57 6h-74q-8 20 -8 41t8 39h74q56 0 88 25t32 80t-32.5 80.5
t-96.5 25.5q-29 0 -52.5 -3.5t-40.5 -7.5q-20 -5 -36 -11q-36 25 -31 71q19 9 45 17q22 7 53.5 12.5t70.5 5.5q105 0 163 -45.5t58 -131.5q0 -54 -19.5 -94t-69.5 -61q59 -21 85 -65.5t26 -110.5z" />
    <glyph glyph-name="four" unicode="4" horiz-adv-x="579" 
d="M349 673q5 1 13 3q6 2 15.5 3t22.5 1q12 0 21 -1t15 -3l12 -3v-422h89q1 -4 3 -10q2 -5 3 -12.5t1 -17.5t-1 -17.5t-3 -12.5q-2 -6 -3 -10h-89v-164q-5 -2 -12 -4q-12 -3 -34 -3q-24 0 -36 3q-7 2 -13 4v164h-315q-2 4 -4 10q-2 5 -3 12.5t-1 17.5t1 17.5t3 12.5
q2 6 4 10zM138 251h215v291z" />
    <glyph glyph-name="five" unicode="5" horiz-adv-x="522" 
d="M185 400q6 1 19.5 2t32.5 1q115 0 173.5 -50t58.5 -157q0 -100 -62.5 -153t-193.5 -53q-45 0 -76 5t-51 11q-24 7 -40 17q-2 20 5 40.5t20 33.5q17 -7 37 -11q17 -4 41.5 -7t53.5 -3q79 0 121 27.5t42 92.5q0 67 -37.5 95.5t-127.5 28.5q-33 0 -63.5 -2t-50.5 -4v366h353
q8 -22 8 -45t-8 -43h-255v-192z" />
    <glyph glyph-name="six" unicode="6" horiz-adv-x="552" 
d="M436 680q8 -17 8 -39t-8 -41q-107 -12 -172.5 -60t-88.5 -148q23 8 54 16t70 8q43 0 81 -12t66 -37.5t44 -66t16 -97.5q0 -109 -61 -161t-163 -52q-51 0 -92 15.5t-70.5 48t-45.5 83t-16 120.5q0 105 26 182t74.5 129t118.5 79t159 33zM403 203q0 37 -9 62.5t-25 41.5
t-38 23t-48 7q-39 0 -71 -10.5t-50 -18.5q-2 -13 -2 -27v-28q0 -100 34 -143t88 -43t87.5 33t33.5 103z" />
    <glyph glyph-name="seven" unicode="7" horiz-adv-x="496" 
d="M456 680q5 -14 6 -28t0 -28q-2 -59 -21 -105.5t-46 -88.5t-58.5 -83.5t-58.5 -90.5t-44.5 -110t-17.5 -141q-22 -5 -48 -5q-27 0 -49 5q0 84 15.5 147.5t40 113.5t53.5 90.5t56 77.5t48.5 74.5t29.5 82.5h-320q-2 5 -4 12q-2 6 -3 14t-1 19t1 19.5t3 13.5q2 6 4 11h414z
" />
    <glyph glyph-name="eight" unicode="8" horiz-adv-x="581" 
d="M287 -10q-108 0 -169 46.5t-61 131.5q0 37 12.5 66.5t31 52t41 39t42.5 27.5q-23 13 -42.5 28.5t-33.5 35.5t-22.5 45t-8.5 57q0 78 56.5 124.5t155.5 46.5q97 0 152.5 -42.5t55.5 -120.5q0 -33 -9 -59t-23.5 -47t-32 -36.5t-33.5 -26.5q26 -14 49 -30.5t40.5 -38
t27.5 -49t10 -63.5q0 -89 -62 -138t-177 -49zM289 615q-54 0 -84 -24t-30 -66q0 -27 13.5 -47t35.5 -35.5t51 -28.5t59 -26q12 9 24.5 21.5t23.5 28.5t18 36t7 44q0 47 -31 72t-87 25zM291 69q63 0 98.5 27.5t35.5 75.5q0 31 -15.5 53t-41 38.5t-57 30t-64.5 27.5
q-11 -7 -27 -20t-31 -31.5t-25.5 -42.5t-10.5 -54q0 -48 34.5 -76t103.5 -28z" />
    <glyph glyph-name="nine" unicode="9" horiz-adv-x="552" 
d="M117 0q-16 42 -1 80q107 11 172.5 59t88.5 149q-23 -8 -54 -16t-70 -8q-43 0 -81 12t-66 37.5t-44 66t-16 97.5q0 109 61 161t163 52q51 0 92 -15.5t70.5 -48t45.5 -83t16 -120.5q0 -105 -25.5 -182t-74.5 -129t-119 -79t-158 -33zM149 477q0 -37 9 -62.5t25 -41.5
t38 -23t48 -7q38 0 70.5 10t50.5 18q1 14 1.5 27.5t0.5 28.5q0 100 -34 143t-88 43t-87.5 -33t-33.5 -103z" />
    <glyph glyph-name="colon" unicode=":" horiz-adv-x="242" 
d="M173 402q-5 -2 -13 -4q-14 -3 -39 -3q-28 0 -40 3q-8 2 -12 4v94l12 3q6 2 16 3t24 1q13 0 22.5 -1t16.5 -3q8 -2 13 -3v-94zM173 7q-5 -2 -13 -4q-14 -3 -39 -3q-28 0 -40 3q-8 2 -12 4v94l12 3q6 2 16 3t24 1q13 0 22.5 -1t16.5 -3q8 -2 13 -3v-94z" />
    <glyph glyph-name="semicolon" unicode=";" horiz-adv-x="248" 
d="M177 402q-5 -2 -13 -4q-14 -3 -39 -3q-28 0 -40 3q-8 2 -12 4v94l12 3q6 2 16 3t24 1q13 0 22.5 -1t16.5 -3q8 -2 13 -3v-94zM69 -100q9 11 17 26q7 13 12.5 31t7.5 43q-9 0 -15 1t-10 3t-8 3v94l12 3q6 2 16 3t24 1q13 0 22.5 -1t16.5 -3q8 -2 13 -3v-63
q0 -41 -11 -71.5t-25 -50.5q-16 -24 -35 -41z" />
    <glyph glyph-name="less" unicode="&#x3c;" horiz-adv-x="450" 
d="M54 250q-2 5 -3 11q-3 10 -3 30q0 17 3 28q1 6 3 10l320 144l3 -9q1 -5 2 -12t1 -16q0 -10 -1 -17t-2 -12q-2 -6 -3 -10l-238 -109l238 -106l3 -9q1 -5 2 -12t1 -17q0 -9 -1 -16t-2 -12q-2 -6 -3 -10z" />
    <glyph glyph-name="equal" unicode="=" horiz-adv-x="514" 
d="M78 342q-11 41 0 75h358q6 -17 5.5 -37t-5.5 -38h-358zM78 162q-11 41 0 75h358q6 -17 5.5 -37.5t-5.5 -37.5h-358z" />
    <glyph glyph-name="greater" unicode="&#x3e;" horiz-adv-x="450" 
d="M76 106q-2 4 -3 10q-3 9 -3 28q0 20 3 29q1 5 3 9l238 106l-238 109q-2 4 -3 10q-3 10 -3 29t3 28q1 5 3 9l320 -144q1 -4 3 -10q1 -5 2 -12.5t1 -15.5q0 -9 -1 -17t-2 -13q-2 -6 -3 -11z" />
    <glyph glyph-name="question" unicode="?" horiz-adv-x="436" 
d="M396 516q0 -49 -13.5 -80.5t-33 -54t-43 -39t-43 -36t-33 -45.5t-13.5 -66q-4 -3 -9 -5q-10 -5 -29 -5q-17 0 -29 5q-6 2 -10 5q0 53 11.5 87t28.5 57t36.5 39t36.5 33t28.5 40t11.5 60q0 52 -30 74t-84 22q-27 0 -48.5 -3.5t-35.5 -8.5q-18 -5 -30 -11q-36 25 -31 71
q18 9 42 17q20 7 50 12.5t68 5.5q44 0 81 -10.5t64 -32t42 -54t15 -77.5zM231 7q-5 -2 -13 -4q-14 -3 -39 -3q-28 0 -40 3q-8 2 -12 4v94l12 3q6 2 16 3t24 1q13 0 22.5 -1t16.5 -3q8 -2 13 -3v-94z" />
    <glyph glyph-name="at" unicode="@" horiz-adv-x="913" 
d="M854 303q0 -106 -47 -162t-131 -56q-97 0 -124 61q-17 -29 -47.5 -45t-80.5 -16q-34 0 -63 10t-50 32.5t-32.5 59.5t-11.5 91q0 55 11.5 92t32.5 59.5t50 32.5t63 10q42 0 70 -11.5t46 -31.5v39q4 2 10 4q5 2 13 3t19 1t19 -1t13 -3q6 -2 10 -4v-248q0 -68 55 -68
q42 0 68.5 36.5t26.5 114.5q0 70 -20.5 127.5t-60 98.5t-96.5 63.5t-130 22.5q-74 0 -134 -23t-102 -66.5t-65 -106t-23 -140.5q0 -87 26.5 -149t71 -101.5t102.5 -58t121 -18.5q71 0 138.5 20.5t125.5 55.5q28 -15 30 -50q-71 -49 -149 -71.5t-158 -22.5q-77 0 -148.5 24
t-126.5 72.5t-88.5 123t-33.5 175.5q0 94 31.5 168.5t86.5 126t130.5 79t164.5 27.5q91 0 163 -27t122 -76.5t76 -119t26 -154.5zM359 278q0 -39 7 -64t19.5 -40t30 -20.5t38.5 -5.5q39 0 61.5 24t24.5 57v98q-2 34 -24.5 58t-61.5 24q-21 0 -38.5 -5t-30 -19.5t-19.5 -40
t-7 -66.5z" />
    <glyph glyph-name="A" unicode="A" horiz-adv-x="654" 
d="M267 713q7 1 17 3q8 2 18.5 3t24.5 1t25 -1t19 -3q9 -2 16 -3l251 -706q-6 -2 -14 -4q-14 -3 -41 -3q-26 0 -38 3q-7 2 -12 4l-62 176h-296l-63 -176q-6 -2 -13 -4q-12 -3 -36 -3q-23 0 -35 3q-7 2 -12 4zM322 609q-3 -12 -7 -26q-3 -12 -8 -28.5t-11 -35.5l-92 -253h238
l-91 253q-7 20 -12 36t-8 28q-4 14 -6 26h-3z" />
    <glyph glyph-name="B" unicode="B" horiz-adv-x="628" 
d="M357 720q48 0 85 -15t61.5 -41.5t37 -62.5t12.5 -79q0 -31 -7.5 -55.5t-19 -43t-26 -31.5t-27.5 -22q16 -8 34 -21.5t33 -33.5t24.5 -47.5t9.5 -64.5q0 -45 -14 -82.5t-41.5 -64.5t-67 -41.5t-90.5 -14.5h-272v720h268zM335 403q61 0 87.5 33.5t26.5 85.5q0 53 -26.5 86
t-88.5 33h-143v-238h144zM342 79q68 0 97.5 32.5t29.5 91.5q0 63 -31 93.5t-97 30.5h-150v-248h151z" />
    <glyph glyph-name="C" unicode="C" horiz-adv-x="562" 
d="M58 360q0 183 73 276.5t218 93.5q42 0 73.5 -5.5t53.5 -11.5q26 -8 44 -17q2 -25 -7 -43t-23 -33q-18 6 -38 11q-17 5 -41 8.5t-50 3.5q-44 0 -80 -13t-62 -45.5t-40.5 -87t-14.5 -138.5t14.5 -138t40.5 -85.5t62 -44t80 -12.5q29 0 54.5 3t44.5 8q22 5 40 12
q15 -14 22.5 -34.5t8.5 -43.5q-20 -10 -47 -17q-23 -7 -57 -12t-78 -5q-144 0 -217.5 93t-73.5 277z" />
    <glyph glyph-name="D" unicode="D" horiz-adv-x="664" 
d="M311 720q69 0 124 -19t92.5 -61.5t57.5 -111.5t20 -168t-20 -168t-57.5 -111.5t-92.5 -61.5t-124 -19h-222v720h222zM304 85q44 0 79.5 11.5t60.5 42t38.5 84t13.5 137.5q0 85 -13.5 138.5t-38.5 84t-60.5 41.5t-79.5 11h-113v-550h113z" />
    <glyph glyph-name="E" unicode="E" horiz-adv-x="556" 
d="M495 720q3 -9 5.5 -18.5t2.5 -20.5q0 -23 -8 -44h-304v-232h254q3 -9 5.5 -19t2.5 -21q0 -21 -8 -42h-254v-240h314q3 -10 5.5 -19.5t2.5 -20.5q0 -21 -8 -43h-416v720h406z" />
    <glyph glyph-name="F" unicode="F" horiz-adv-x="532" 
d="M191 7q-5 -2 -13 -4q-14 -3 -39 -3t-37 3q-7 2 -13 4v713h398q8 -18 8 -41t-8 -42h-296v-244h262q8 -16 8 -40t-8 -43h-262v-303z" />
    <glyph glyph-name="G" unicode="G" horiz-adv-x="629" 
d="M58 360q0 183 78.5 276.5t228.5 93.5q45 0 79.5 -5.5t58.5 -11.5q28 -8 49 -17q0 -21 -8 -41t-22 -34q-19 6 -43 11q-20 5 -47 8.5t-56 3.5q-46 0 -84.5 -13t-67 -45.5t-44.5 -87.5t-16 -139t16 -138t44.5 -86t67 -44.5t84.5 -12.5q35 0 59.5 3t31.5 5v231h-145
q-2 5 -4 11q-2 5 -3 12.5t-1 17.5t1 18t3 13q2 6 4 11h241v-376q-23 -10 -53 -17q-26 -7 -62 -12t-83 -5q-150 0 -228.5 93t-78.5 277z" />
    <glyph glyph-name="H" unicode="H" horiz-adv-x="682" 
d="M491 713q5 1 13 3q7 2 16 3t22 1q12 0 21.5 -1t16.5 -3q8 -2 13 -3v-706q-6 -2 -13 -4q-12 -3 -37 -3q-28 0 -40 3q-7 2 -12 4v318h-300v-318q-5 -2 -13 -4q-14 -3 -38 -3q-27 0 -39 3q-7 2 -12 4v706q6 1 13 3q6 2 15 3t22 1t22.5 -1t16.5 -3q8 -2 13 -3v-300h300v300z
" />
    <glyph glyph-name="I" unicode="I" horiz-adv-x="280" 
d="M89 713q6 1 13 3q6 2 15 3t22 1t22.5 -1t16.5 -3q8 -2 13 -3v-706q-5 -2 -13 -4q-14 -3 -38 -3q-27 0 -39 3q-7 2 -12 4v706z" />
    <glyph glyph-name="J" unicode="J" horiz-adv-x="443" 
d="M257 713l12 3q6 2 15.5 3t23.5 1q13 0 22 -1t16 -3t13 -3v-522q0 -51 -14 -89t-39.5 -62.5t-61 -37t-78.5 -12.5q-30 0 -56.5 4.5t-46.5 10.5q-24 6 -43 15q-2 47 27 77q13 -5 29 -9q14 -4 31 -6.5t37 -2.5q24 0 44.5 5.5t36 18t24 33.5t8.5 52v525z" />
    <glyph glyph-name="K" unicode="K" horiz-adv-x="617" 
d="M470 713q10 2 23 4.5t28 2.5q16 0 30 -2.5t25 -4.5l-227 -328l257 -378q-6 -2 -15 -4q-15 -3 -45 -3q-28 0 -43 3q-9 2 -16 4l-223 326h-73v-326q-5 -2 -12 -4q-12 -3 -39 -3q-25 0 -38 3q-8 2 -13 4v706q5 1 13 3q7 2 16.5 3t22.5 1q12 0 21.5 -1t15.5 -3q7 -2 13 -3
v-298h73z" />
    <glyph glyph-name="L" unicode="L" horiz-adv-x="519" 
d="M89 713q6 1 13 3q6 2 15 3t22 1t22.5 -1t16.5 -3q8 -2 13 -3v-625h299q8 -19 8 -44q0 -23 -8 -44h-401v713z" />
    <glyph glyph-name="M" unicode="M" horiz-adv-x="835" 
d="M616 713q14 3 31.5 5t33.5 2q15 0 27 -1t21 -3q10 -2 18 -3v-706q-6 -2 -13 -4q-12 -3 -37 -3t-38 3q-8 2 -13 4v320v74.5v73t1.5 66t4.5 53.5h-5q-5 -17 -14 -40t-21.5 -49.5t-26.5 -55t-27 -56.5l-117 -220q-5 -2 -9 -3q-5 -1 -10 -1.5t-12 -0.5q-8 0 -12.5 0.5
t-8.5 1.5t-7 3l-115 216q-14 28 -28 57t-26.5 56.5t-22.5 51t-14 40.5h-4q4 -19 6 -47t3 -61t1 -70v-74v-335q-5 -2 -12 -4q-12 -3 -36 -3q-21 0 -33 3q-7 2 -12 4v706q7 1 17 3q8 2 19 3t25 1q11 0 22.5 -1t19.5 -3q10 -2 19 -3l132 -250q22 -44 41.5 -85.5t27.5 -69.5h4
q5 16 14 38t23 51q42 79 82.5 157.5t80.5 158.5z" />
    <glyph glyph-name="N" unicode="N" horiz-adv-x="700" 
d="M239 462q-14 24 -24.5 47.5t-18.5 41.5q-9 21 -16 40h-4q1 -20 3 -46q2 -22 3 -53t1 -69v-416q-5 -2 -12 -4q-12 -3 -36 -3q-25 0 -35 3q-7 2 -11 4v706l15 3q8 2 19.5 3t26.5 1t26 -1t19 -3l15 -3l249 -451q14 -25 25 -48.5t19 -42.5q10 -22 18 -42h3q-2 23 -4 49
q-3 45 -3 118v417l12 3q6 2 14.5 3t21.5 1q12 0 21 -1t14 -3q6 -2 11 -3v-706q-6 -2 -15 -4q-15 -3 -44 -3q-31 0 -46 3q-9 2 -15 4z" />
    <glyph glyph-name="O" unicode="O" horiz-adv-x="680" 
d="M58 360q0 96 19.5 166t56.5 115.5t89 67t117 21.5t117 -21.5t89 -66.5t56.5 -115t19.5 -167t-19.5 -167t-56 -115t-88.5 -66.5t-118 -21.5t-118 21.5t-88.5 66.5t-56 115t-19.5 167zM515 360q0 83 -12.5 138t-35 87.5t-55 46t-72.5 13.5t-72 -13.5t-55 -46t-35.5 -87.5
t-12.5 -138t12.5 -138t35.5 -87.5t55 -46t72 -13.5t72.5 13.5t55 46t35 87.5t12.5 138z" />
    <glyph glyph-name="P" unicode="P" horiz-adv-x="606" 
d="M191 7q-6 -2 -13 -4q-12 -3 -37 -3q-28 0 -40 3q-7 2 -12 4v713h261q49 0 89 -16t68 -45t43 -69.5t15 -89.5t-15 -89t-43 -69t-68 -45t-89 -16h-159v-274zM337 366q60 0 91 35.5t31 98.5q0 64 -31 99.5t-91 35.5h-146v-269h146z" />
    <glyph glyph-name="Q" unicode="Q" horiz-adv-x="680" 
d="M58 360q0 96 19.5 166t56.5 115.5t89 67t117 21.5t117 -21.5t89 -66.5t56.5 -115t19.5 -167q0 -112 -25 -187.5t-73 -119.5q28 -24 63 -39.5t71 -23.5q-3 -26 -18 -50.5t-38 -35.5q-45 15 -82.5 44t-63.5 64q-50 -22 -116 -22t-118 21.5t-88.5 66.5t-56 115t-19.5 167z
M515 360q0 83 -12.5 138t-35 87.5t-55 46t-72.5 13.5t-72 -13.5t-55 -46t-35.5 -87.5t-12.5 -138t12.5 -138t35.5 -87.5t55 -46t72 -13.5t72.5 13.5t55 46t35 87.5t12.5 138z" />
    <glyph glyph-name="R" unicode="R" horiz-adv-x="626" 
d="M345 720q49 0 89 -15.5t68 -43t43 -66.5t15 -86q0 -75 -37.5 -127.5t-103.5 -72.5l174 -302q-6 -2 -15 -4q-15 -3 -45 -3q-28 0 -43 3q-9 2 -15 4l-166 292h-118v-292q-6 -2 -13 -4q-12 -3 -37 -3q-28 0 -40 3q-7 2 -12 4v713h256zM191 384h141q59 0 90.5 32.5t31.5 92.5
t-31.5 93t-90.5 33h-141v-251z" />
    <glyph glyph-name="S" unicode="S" horiz-adv-x="568" 
d="M55 525q0 46 15 84t45.5 65t76.5 41.5t107 14.5q45 0 81 -4.5t62 -9.5q30 -6 53 -14q0 -22 -7 -43.5t-21 -36.5q-20 6 -45 11q-21 4 -49 7.5t-60 3.5q-80 0 -118.5 -29.5t-38.5 -84.5q0 -29 15 -48t39.5 -32.5t57 -23.5t67.5 -21q35 -12 68.5 -27.5t60 -38.5t42.5 -57
t16 -83q0 -101 -63.5 -155t-187.5 -54q-50 0 -90 6.5t-68 14.5q-33 9 -58 21q-1 20 6 42t18 39q28 -9 59 -16q26 -6 59.5 -10.5t68.5 -4.5q152 0 152 114q0 27 -10 45.5t-27 32t-40 23t-49 17.5q-39 13 -81 26.5t-76.5 35.5t-57 57t-22.5 92z" />
    <glyph glyph-name="T" unicode="T" horiz-adv-x="547" 
d="M513 720q2 -5 4 -12q2 -6 3 -14t1 -17q0 -10 -1 -18t-3 -14q-2 -7 -4 -13h-186v-625q-5 -2 -13 -4q-14 -3 -38 -3q-27 0 -39 3q-7 2 -12 4v625h-191q-2 5 -4 12q-2 6 -3 13.5t-1 18.5q0 9 1 17t3 14q2 7 4 13h479z" />
    <glyph glyph-name="U" unicode="U" horiz-adv-x="672" 
d="M588 244q0 -61 -18 -108.5t-51 -79.5t-80 -49t-104 -17t-103.5 17t-79 49.5t-50.5 80t-18 107.5v469q6 1 13 3q6 2 15 3t22 1t22 -1t16 -3t13 -3v-485q0 -72 40 -112t112 -40q73 0 112 40t39 112v485l12 3q6 2 15 3t22 1q12 0 21.5 -1t16.5 -3q8 -2 13 -3v-469z" />
    <glyph glyph-name="V" unicode="V" horiz-adv-x="640" 
d="M289 232q8 -25 14 -46.5t10 -37.5q4 -19 8 -35h3q3 16 7 34q4 16 10 37.5t15 47.5l166 480q4 2 11 4q6 2 14.5 3t21.5 1q12 0 21.5 -1t16.5 -3q8 -2 14 -4l-242 -705q-7 -2 -16 -4q-15 -3 -43 -3t-43 3q-9 2 -16 4l-241 704q6 2 14 4q7 2 17.5 3.5t24.5 1.5q13 0 22 -1
t15 -3q7 -2 11 -4z" />
    <glyph glyph-name="W" unicode="W" horiz-adv-x="966" 
d="M511 465q-8 35 -12.5 62t-6.5 46q-3 22 -4 39h-4q-1 -17 -4 -39q-2 -19 -7 -46t-13 -62l-115 -458q-11 -2 -29 -4.5t-36 -2.5q-17 0 -32.5 2.5t-25.5 4.5l-196 706q5 1 13 3q6 2 15.5 3t22.5 1t23 -1t16 -3l12 -3l131 -470q7 -25 12 -48t9 -42q4 -22 7 -42h4q2 19 6 41
q3 19 7.5 42.5t10.5 48.5l120 470q5 1 13 3q7 2 16.5 3t23.5 1t24 -1t17 -3q8 -2 13 -3l119 -470q6 -26 10.5 -50t7.5 -42q4 -21 5 -40h3q3 18 7 39q4 18 8.5 42t12.5 51l131 470l12 3q6 2 14.5 3t19.5 1t20 -1t15 -3q7 -2 13 -3l-195 -706q-7 -2 -16 -4q-15 -3 -42 -3
t-43 3q-10 2 -18 4z" />
    <glyph glyph-name="X" unicode="X" horiz-adv-x="626" 
d="M483 713q11 3 24 5t30 2t30.5 -2t23.5 -5l-214 -333l232 -371q-6 -3 -15 -5q-8 -2 -19 -3t-25 -1t-24 1t-18 3q-9 2 -15 4l-183 292l-185 -293q-10 -3 -23 -5t-28 -2q-17 0 -33 1.5t-27 5.5l233 367l-209 339l15 3q8 2 18.5 3t25.5 1q13 0 23 -1t18 -3q9 -2 16 -3
l163 -261l166 261v0z" />
    <glyph glyph-name="Y" unicode="Y" horiz-adv-x="634" 
d="M510 713q5 1 13 3q7 2 16.5 3t23.5 1q13 0 23 -1t18 -3q9 -2 16 -3l-253 -412v-294q-6 -2 -13 -4q-12 -3 -37 -3q-28 0 -40 3q-8 2 -12 4v292l-246 414q6 1 16 3q8 2 19.5 3t26.5 1q14 0 24.5 -1t18.5 -3l15 -3l183 -309l188 309v0z" />
    <glyph glyph-name="Z" unicode="Z" horiz-adv-x="594" 
d="M532 720q7 -16 7 -43q0 -13 -2 -25t-5 -21l-376 -541h389q2 -8 4 -19t2 -24q0 -14 -2 -25l-4 -22h-501q-8 22 -8 46q0 25 8 44l371 541h-344q-2 10 -4 22t-2 25t2 23.5t4 18.5h461z" />
    <glyph glyph-name="bracketleft" unicode="[" horiz-adv-x="329" 
d="M289 810q1 -5 3 -10q1 -5 2 -12t1 -17t-1 -16.5t-2 -11.5l-3 -9h-106v-828h106q1 -5 3 -10q1 -5 2 -12t1 -16q0 -10 -1 -17t-2 -12l-3 -9h-199v980h199z" />
    <glyph glyph-name="backslash" unicode="\" horiz-adv-x="477" 
d="M457 -39q-6 -2 -13 -4t-16 -3t-22 -1t-22 1t-16 3q-8 2 -13 4l-334 781q5 2 13 4q7 2 16.5 3t22.5 1q12 0 21 -1t16 -3t13 -4z" />
    <glyph glyph-name="bracketright" unicode="]" horiz-adv-x="329" 
d="M40 -170q-2 4 -3 9q-3 9 -3 29q0 19 3 28q1 5 3 10h106v828h-106q-2 4 -3 9q-3 9 -3 28q0 18 3 29q1 5 3 10h199v-980h-199z" />
    <glyph glyph-name="asciicircum" unicode="^" horiz-adv-x="522" 
d="M475 458q-5 -2 -10 -3q-11 -3 -28 -3q-19 0 -31 3q-7 1 -13 3l-132 196l-133 -196q-5 -2 -12 -3q-12 -3 -31 -3t-28 3q-6 1 -10 3l173 256q5 1 11 3q5 1 12.5 2t17.5 1t17.5 -1t12.5 -2q6 -2 11 -3z" />
    <glyph glyph-name="underscore" unicode="_" horiz-adv-x="556" 
d="M64 -87q-2 3 -3 8q-3 7 -3 26q0 17 3 25q1 4 3 8h428q1 -4 3 -8q1 -4 2 -10.5t1 -14.5q0 -9 -1 -15.5t-2 -10.5q-2 -5 -3 -8h-428z" />
    <glyph glyph-name="grave" unicode="`" horiz-adv-x="238" 
d="M30 772q11 17 37 28.5t50 8.5l95 -141q-9 -13 -24 -20.5t-33 -10.5z" />
    <glyph glyph-name="a" unicode="a" horiz-adv-x="515" 
d="M80 499q23 10 50 18q23 7 55 13t70 6q54 0 91 -12t59 -36.5t31.5 -61t9.5 -84.5v-335q-4 -2 -9 -4q-9 -3 -30 -3q-19 0 -29 3q-6 2 -11 4l-15 64q-20 -40 -60 -60.5t-97 -20.5q-71 0 -113 41t-42 126q0 82 49 119.5t143 37.5q34 0 64 -2t50 -4v37q0 51 -22.5 79t-80.5 28
q-26 0 -50 -4t-43 -9q-22 -5 -41 -12q-1 1 -8 7.5t-15 22.5q-7 16 -6.5 28.5t0.5 13.5zM346 240q-17 2 -44.5 4t-56.5 2q-51 0 -76.5 -20.5t-25.5 -68.5q0 -49 23 -69.5t64 -20.5q30 0 51.5 11.5t36 31t21.5 44t7 51.5v35z" />
    <glyph glyph-name="b" unicode="b" horiz-adv-x="556" 
d="M173 471q21 31 55.5 48t88.5 17q43 0 77.5 -14t59 -46t38 -84.5t13.5 -128.5q0 -77 -13.5 -129t-38 -84t-59 -46t-77.5 -14q-54 0 -88.5 17t-55.5 48v-48q-6 -2 -13 -4q-14 -3 -38 -3q-25 0 -37 3q-7 2 -12 4v736l12 3q6 2 15 3t22 1t22 -1t16 -3t13 -3v-272zM402 263
q0 56 -7.5 93t-22.5 58.5t-37.5 30.5t-52.5 9q-26 0 -46.5 -10t-34.5 -27.5t-21 -40.5t-7 -48v-128q0 -26 7 -49t21 -40.5t34.5 -28t46.5 -10.5q30 0 52.5 9t37.5 30.5t22.5 58.5t7.5 93z" />
    <glyph glyph-name="c" unicode="c" horiz-adv-x="447" 
d="M287 454q-72 0 -103 -46.5t-31 -144.5q0 -99 33 -143.5t105 -44.5q20 0 37.5 2.5t30.5 5.5q15 4 26 9q13 -11 20.5 -31t8.5 -41q-15 -9 -35 -15q-18 -6 -44.5 -10.5t-64.5 -4.5q-110 0 -165 69.5t-55 203.5t55 203.5t165 69.5q36 0 61 -4t42 -9q18 -5 31 -12
q0 -20 -7.5 -39.5t-21.5 -32.5q-11 3 -24 7q-11 3 -27.5 5.5t-36.5 2.5z" />
    <glyph glyph-name="d" unicode="d" horiz-adv-x="556" 
d="M383 743q5 1 13 3q6 2 15.5 3t22.5 1q12 0 21.5 -1t15.5 -3l12 -3v-736l-12 -4q-11 -3 -30 -3q-20 0 -32 3q-7 2 -13 4l-7 54q-22 -33 -57.5 -52t-92.5 -19q-43 0 -77.5 14t-59 46t-38 84t-13.5 129q0 76 13.5 128.5t38 84.5t59 46t77.5 14q53 0 87.5 -17t56.5 -48v272z
M383 329q0 25 -7.5 47.5t-21.5 40t-34 27.5t-46 10q-30 0 -52.5 -9t-37.5 -30.5t-22.5 -58.5t-7.5 -93t7.5 -93t22.5 -58.5t37.5 -30.5t52.5 -9q26 0 46.5 10.5t34.5 28t21 40.5t7 49v129z" />
    <glyph glyph-name="e" unicode="e" horiz-adv-x="514" 
d="M153 232q3 -45 13.5 -75t28 -48t42 -26t55.5 -8q26 0 48 4.5t38 9.5q18 6 32 15q14 -12 22.5 -31t9.5 -41q-17 -12 -42 -21q-21 -8 -52 -14.5t-72 -6.5q-116 0 -171 69.5t-55 206.5q0 71 16 122t45 84t70 48.5t91 15.5q93 0 145.5 -50.5t52.5 -150.5q0 -24 -2 -42.5
t-4 -32.5q-3 -16 -5 -28h-306zM370 348q0 22 -5 42t-16.5 35t-30 23.5t-46.5 8.5q-49 0 -81 -35.5t-38 -118.5h214q1 6 2 17.5t1 27.5z" />
    <glyph glyph-name="f" unicode="f" horiz-adv-x="352" 
d="M102 586q0 36 8 66.5t27.5 52t51.5 33.5t80 12q25 0 45.5 -3.5t34.5 -7.5q17 -4 30 -10q-1 -41 -26 -70q-10 2 -21 5q-11 2 -25 4t-31 2q-43 0 -58.5 -19.5t-15.5 -59.5v-65h125q5 -18 5 -39q0 -18 -5 -36h-125v-444q-6 -2 -13 -4q-12 -3 -37 -3q-26 0 -38 3q-7 2 -12 4
v444h-66q-2 8 -3.5 17.5t-1.5 20.5q0 20 5 37h66v60v0z" />
    <glyph glyph-name="g" unicode="g" horiz-adv-x="531" 
d="M500 536q7 -16 7 -39t-7 -40l-83 4q28 -41 28 -105q0 -85 -49.5 -132.5t-146.5 -47.5q-25 0 -44 3q-8 -11 -14.5 -26t-4.5 -32q3 -23 27 -32.5t59 -14.5t74.5 -10t73.5 -20t56.5 -43.5t22.5 -79.5q0 -37 -17.5 -68t-50.5 -54t-80.5 -36t-108.5 -13q-56 0 -96.5 10.5
t-66.5 29t-38 44t-12 55.5q0 28 10 51t24.5 40.5t29.5 29t25 17.5q-22 22 -22 58q0 33 15.5 62t32.5 49q-45 21 -68 62t-23 98q0 85 49.5 132.5t146.5 47.5q67 0 111 -23zM349 356q0 57 -27.5 83.5t-72.5 26.5t-73 -26.5t-28 -83.5t28 -83t73 -26t72.5 26t27.5 83zM404 -89
q0 31 -23.5 44.5t-58.5 20t-75.5 10t-74.5 14.5q-19 -15 -32.5 -39t-13.5 -52q0 -38 28.5 -63t90.5 -25q78 0 118.5 25t40.5 65z" />
    <glyph glyph-name="h" unicode="h" horiz-adv-x="549" 
d="M479 7q-6 -2 -13 -4q-12 -3 -37 -3q-26 0 -38 3q-7 2 -12 4v360q0 42 -22.5 65t-70.5 23q-33 0 -63 -17t-50 -47v-384q-6 -2 -13 -4q-14 -3 -37 -3q-26 0 -38 3q-7 2 -12 4v736l12 3q6 2 15 3t23 1q12 0 21 -1t16 -3t13 -3v-270q55 63 151 63q75 0 115 -41.5t40 -109.5
v-378z" />
    <glyph glyph-name="i" unicode="i" 
d="M177 627q-5 -2 -13 -4q-14 -3 -39 -3q-28 0 -40 3q-8 2 -12 4v94l12 3q6 2 16 3t24 1q13 0 22.5 -1t16.5 -3q8 -2 13 -3v-94zM175 7q-6 -2 -13 -4q-12 -3 -37 -3q-26 0 -38 3q-7 2 -12 4v512l12 3q6 2 15 3t23 1q12 0 21.5 -1t15.5 -3q7 -2 13 -3v-512z" />
    <glyph glyph-name="j" unicode="j" 
d="M177 628q-5 -2 -13 -4q-14 -3 -39 -3q-28 0 -40 3q-8 2 -12 4v94l12 3q6 2 16 3t24 1q13 0 22.5 -1t16.5 -3q8 -2 13 -3v-94zM75 519l12 3q6 2 15 3t23 1q12 0 21.5 -1t15.5 -3q7 -2 13 -3v-607q0 -80 -37 -121t-108 -41q-16 0 -28.5 1t-20.5 3q-11 2 -18 5q-1 3 -2 7
t-1 16q0 26 5 39q2 7 5 12q5 -1 11 -2q5 -1 11.5 -1.5t14.5 -0.5q34 0 51 18.5t17 60.5v611z" />
    <glyph glyph-name="k" unicode="k" horiz-adv-x="501" 
d="M366 519q6 1 14 3q7 2 16 3t21 1q11 0 19.5 -1t15.5 -2q8 -2 14 -3l-154 -239l177 -274q-6 -2 -15 -4q-8 -2 -18 -3t-23 -1t-23 1t-17 3q-8 2 -14 4l-150 230h-56v-230q-6 -2 -14 -4q-14 -3 -35 -3q-25 0 -38 3q-8 2 -13 4v738q6 1 14 2q7 1 16 2t21 1q10 0 19 -1t16 -2
q8 -1 14 -2v-433h57z" />
    <glyph glyph-name="l" unicode="l" horiz-adv-x="252" 
d="M176 7q-6 -2 -13 -4q-12 -3 -37 -3q-26 0 -38 3q-7 2 -12 4v736l12 3q6 2 15 3t23 1q12 0 21.5 -1t15.5 -3q7 -2 13 -3v-736z" />
    <glyph glyph-name="m" unicode="m" horiz-adv-x="829" 
d="M446 463q61 73 164 73q72 0 110.5 -41.5t38.5 -109.5v-378q-6 -2 -13 -4q-12 -3 -37 -3q-26 0 -38 3q-7 2 -12 4v360q0 42 -20.5 65t-66.5 23q-31 0 -59 -16t-48 -48v-384q-6 -2 -13 -4q-12 -3 -36 -3q-26 0 -38 3q-7 2 -12 4v360q0 42 -20.5 65t-66.5 23q-31 0 -59 -17
t-48 -46v-385q-6 -2 -13 -4q-12 -3 -36 -3q-26 0 -38 3q-7 2 -12 4v512l12 3q6 2 15 3t23 1q12 0 21 -1t15 -3q7 -2 13 -3v-45q26 30 63 46t81 16t77 -17t53 -56z" />
    <glyph glyph-name="n" unicode="n" horiz-adv-x="549" 
d="M479 7q-6 -2 -13 -4q-12 -3 -37 -3q-26 0 -38 3q-7 2 -12 4v360q0 42 -22.5 65t-70.5 23q-33 0 -63 -17t-50 -47v-384q-6 -2 -13 -4q-14 -3 -37 -3q-26 0 -38 3q-7 2 -12 4v512l12 3q6 2 15 3t23 1q12 0 21 -1t16 -3t13 -3v-46q55 63 151 63q75 0 115 -41.5t40 -109.5
v-378z" />
    <glyph glyph-name="o" unicode="o" horiz-adv-x="544" 
d="M50 263q0 74 15.5 126t44 84.5t70 47.5t92.5 15q52 0 93 -15t69.5 -47.5t44 -84.5t15.5 -126t-15.5 -126t-44 -84.5t-70 -47.5t-92.5 -15t-92.5 15t-70 47.5t-44 84.5t-15.5 126zM391 263q0 58 -8.5 95.5t-24 60t-37.5 31.5t-49 9t-49.5 -9t-38 -31.5t-24 -60t-8.5 -95.5
t8.5 -95.5t24 -60t38 -31.5t49.5 -9t49 9t37.5 31.5t24 60t8.5 95.5z" />
    <glyph glyph-name="p" unicode="p" horiz-adv-x="557" 
d="M173 471q21 31 55.5 48t88.5 17q43 0 77.5 -14t59 -46t38 -84.5t13.5 -128.5q0 -77 -13.5 -129t-38 -84t-59 -46t-77.5 -14q-54 0 -88.5 17t-55.5 48v-280q-6 -2 -13 -3q-14 -3 -38 -3q-25 0 -37 3q-7 1 -12 3v744l12 3q6 2 15 3t22 1t22 -1t16 -3t13 -3v-48zM402 263
q0 56 -7.5 93t-22.5 58.5t-37.5 30.5t-52.5 9q-26 0 -46.5 -10t-34.5 -27.5t-21 -40.5t-7 -48v-128q0 -26 7 -49t21 -40.5t34.5 -28t46.5 -10.5q30 0 52.5 9t37.5 30.5t22.5 58.5t7.5 93z" />
    <glyph glyph-name="q" unicode="q" horiz-adv-x="557" 
d="M384 55q-22 -31 -56.5 -48t-87.5 -17q-43 0 -77.5 14t-59 46t-38 84t-13.5 129q0 76 13.5 128.5t38 84.5t59 46t77.5 14q53 0 87.5 -17t56.5 -48v48l12 3q6 2 15 3t22 1q12 0 21.5 -1t16.5 -3q8 -2 13 -3v-744q-5 -2 -12 -3q-12 -3 -37 -3q-26 0 -38 3q-8 1 -13 3v280z
M155 263q0 -56 7.5 -93t22.5 -58.5t37.5 -30.5t52.5 -9q25 0 45 10t34 27t21.5 39t8.5 47v133q0 25 -7.5 48t-21.5 40.5t-34 27.5t-46 10q-30 0 -52.5 -9t-37.5 -30.5t-22.5 -58.5t-7.5 -93z" />
    <glyph glyph-name="r" unicode="r" horiz-adv-x="394" 
d="M173 450q29 48 60.5 66.5t61.5 18.5q28 0 49 -7t38 -18q-4 -52 -44 -84q-29 21 -62 21q-29 0 -56 -20.5t-47 -55.5v-364q-6 -2 -13 -4q-12 -3 -37 -3q-26 0 -38 3q-7 2 -12 4v512l12 3q6 2 15 3t23 1q12 0 21.5 -1t15.5 -3q7 -2 13 -3v-69v0z" />
    <glyph glyph-name="s" unicode="s" horiz-adv-x="446" 
d="M50 379q0 71 46 114t142 43q37 0 63.5 -4.5t43.5 -9.5q20 -6 34 -13q0 -20 -6.5 -39.5t-19.5 -31.5q-14 4 -31 8q-14 3 -33.5 5.5t-40.5 2.5q-102 0 -102 -72q0 -18 11 -30.5t28.5 -21t40 -15.5t46.5 -15t48 -18.5t43 -27.5t30.5 -42t11.5 -62q0 -76 -47 -118t-143 -42
q-40 0 -70.5 5.5t-52.5 12.5q-26 8 -44 18q0 22 6.5 41.5t20.5 32.5q19 -8 41 -13q19 -5 43.5 -8.5t50.5 -3.5q46 0 71 17.5t25 54.5q0 21 -9.5 34t-25.5 22t-36.5 15.5t-42.5 12.5q-26 7 -51 17.5t-45.5 27t-33 41.5t-12.5 62z" />
    <glyph glyph-name="t" unicode="t" horiz-adv-x="379" 
d="M207 189q0 -68 23.5 -93t76.5 -25q8 0 15 0.5t13 1.5l14 2q1 -5 3 -11q2 -5 3 -13t1 -16q0 -9 -1 -15.5t-2 -11.5t-2 -9q-14 -4 -33 -6.5t-39 -2.5q-93 0 -132.5 49t-39.5 145v267h-77q-2 5 -3 10q-3 9 -3 27q0 19 3 28q1 5 3 10h77v91q20 12 46 17t54 3v-111h130
q1 -5 3 -10q1 -5 2 -11.5t1 -15.5t-1 -16t-2 -12q-2 -6 -3 -10h-130v-262z" />
    <glyph glyph-name="u" unicode="u" horiz-adv-x="548" 
d="M69 519q6 1 13 3q6 2 15 3t22 1t22.5 -1t15.5 -3l12 -3v-360q0 -42 22.5 -65t70.5 -23q33 0 63 16.5t50 47.5v384q5 1 13 3q6 2 15.5 3t21.5 1q13 0 22.5 -1t15.5 -3l12 -3v-512q-5 -2 -12 -4q-12 -3 -38 -3q-25 0 -37 3q-8 2 -13 4v46q-27 -31 -65.5 -47t-85.5 -16
q-75 0 -115 41.5t-40 109.5v378z" />
    <glyph glyph-name="v" unicode="v" horiz-adv-x="516" 
d="M231 204q7 -21 12 -40.5t9 -34.5q4 -18 7 -32h4l8 32q4 14 9.5 33.5t13.5 41.5l109 315l12 3q6 2 14 3t19 1t20 -1t15 -3l12 -3l-176 -512q-7 -2 -17 -4q-17 -3 -43 -3q-29 0 -44 3q-9 2 -16 4l-180 512q6 1 14 3q7 2 16 3t22 1t22.5 -1t16.5 -3q8 -2 13 -3z" />
    <glyph glyph-name="w" unicode="w" horiz-adv-x="797" 
d="M429 278q-14 51 -19.5 86t-7.5 58h-4q-2 -23 -7.5 -58t-20.5 -86l-79 -271q-22 -7 -57 -7q-34 0 -58 7l-151 512q5 1 13 3q6 2 15.5 3t21.5 1q13 0 21 -1t13 -3l9 -3l95 -319q10 -32 14.5 -57t6.5 -41h3q3 17 7.5 41t14.5 57l92 319q7 1 16 3q8 2 17.5 3t20.5 1
q12 0 21.5 -1t15.5 -3l12 -3l89 -317q10 -34 14 -59t6 -41h3q3 16 8.5 40t16.5 59l94 318q4 1 11 3q5 2 13.5 3t19.5 1t19.5 -1t13.5 -3q6 -2 10 -3l-151 -512q-25 -7 -57 -7q-31 0 -58 7z" />
    <glyph glyph-name="x" unicode="x" horiz-adv-x="503" 
d="M28 519q6 1 14 3q7 2 17 3t24 1t24 -1t17 -3q8 -2 14 -3l118 -177l119 177l12 3q6 2 15 3t21 1q13 0 22.5 -1t16.5 -3q8 -2 13 -3l-166 -246l178 -266q-6 -2 -14 -4q-14 -3 -41 -3q-28 0 -41 3q-8 2 -14 4l-129 193l-130 -193q-6 -2 -13 -4q-12 -3 -36 -3q-25 0 -38 3
q-8 2 -14 4l177 262z" />
    <glyph glyph-name="y" unicode="y" horiz-adv-x="526" 
d="M311 -77q-14 -41 -28 -73.5t-34.5 -54.5t-48.5 -33.5t-68 -11.5q-23 0 -40 5q-9 2 -15 5q0 1 -3.5 11.5t-3.5 25.5q0 17 3.5 28t4.5 12l14 -2q6 -1 14 -1.5t17 -0.5q17 0 30 3.5t24.5 14.5t22 32t21.5 56l21 61l-16 2t-16 5l-190 512q6 1 14 3q7 2 16 3t22 1t22.5 -1
t16.5 -3q8 -2 13 -3l114 -304q18 -53 27 -84q5 -18 8 -33h4l8 32q4 15 10 36.5t14 47.5l99 305l12 3q6 2 15 3t22 1q11 0 19.5 -1t14.5 -3q7 -2 13 -3z" />
    <glyph glyph-name="z" unicode="z" horiz-adv-x="467" 
d="M415 82q1 -4 3 -10q1 -5 2 -13t1 -18t-1 -17.5t-2 -12.5q-2 -6 -3 -11h-371q-2 9 -4 20t-2 23t2 21.5t4 17.5l266 362h-249q-2 6 -3 12q-3 10 -3 30q0 19 3 30q1 6 3 10h354q6 -14 6 -39q0 -12 -1.5 -23.5t-4.5 -19.5l-265 -362h265z" />
    <glyph glyph-name="braceleft" unicode="{" horiz-adv-x="347" 
d="M307 810q6 -15 6 -38q0 -11 -2 -20.5t-4 -17.5h-49q-32 0 -46 -15t-14 -44v-240q0 -34 -9 -59t-31 -41q22 -16 31 -41t9 -60v-240q0 -29 14 -44t46 -15h49q6 -17 6 -39t-6 -37h-68q-67 0 -100 36.5t-33 96.5v260q0 20 -9.5 32t-32.5 12h-28q-6 16 -6 39q0 11 2 20.5
t4 17.5h28q23 0 32.5 12t9.5 32v260q0 60 33 96.5t100 36.5h68z" />
    <glyph glyph-name="bar" unicode="|" horiz-adv-x="278" 
d="M101 786q6 2 15 3t23 1q12 0 21.5 -1t15.5 -3q7 -2 13 -3v-973q-6 -2 -13 -4q-12 -3 -37 -3q-26 0 -38 3q-7 2 -12 4v973z" />
    <glyph glyph-name="braceright" unicode="}" horiz-adv-x="348" 
d="M109 810q67 0 100 -36.5t33 -96.5v-260q0 -20 9.5 -32t32.5 -12h27q2 -8 4 -17.5t2 -20.5q0 -23 -6 -39h-27q-23 0 -32.5 -12t-9.5 -32v-260q0 -60 -33 -96.5t-100 -36.5h-69q-6 15 -6 37t6 39h49q32 0 46 15t14 44v240q0 35 9 59.5t30 41.5q-21 16 -30 41t-9 59v240
q0 29 -14 44t-46 15h-49q-2 8 -4 17.5t-2 20.5q0 23 6 38h69z" />
    <glyph glyph-name="asciitilde" unicode="~" horiz-adv-x="524" 
d="M182 271q-18 0 -31.5 -5.5t-21.5 -12.5q-11 -8 -17 -18q-19 5 -30.5 18.5t-14.5 30.5q10 18 27 32q14 12 36.5 22t54.5 10q25 0 43.5 -8t36 -17.5t35.5 -17.5t42 -8q18 0 31 5.5t22 12.5q11 8 18 19q19 -6 30.5 -19t14.5 -30q-10 -19 -27 -33q-14 -12 -37 -22t-55 -10
q-25 0 -43.5 8t-36 17.5t-35.5 17.5t-42 8z" />
    <glyph glyph-name="exclamdown" unicode="&#xa1;" horiz-adv-x="258" 
d="M77 511q5 1 13 3q7 2 16.5 3t22.5 1q14 0 23 -1t16 -3t13 -3v-94q-6 -2 -13 -4q-14 -3 -39 -3q-26 0 -39 3q-8 2 -13 4v94zM101 329q5 1 11.5 2t15.5 1t16 -1t12 -2q5 -2 10 -3l17 -521q-5 -2 -13 -4q-14 -3 -41 -3q-28 0 -41 3q-8 2 -13 4l17 521z" />
    <glyph glyph-name="cent" unicode="&#xa2;" horiz-adv-x="467" 
d="M234 627q1 1 12.5 4.5t28.5 3.5q20 0 30.5 -3.5t11.5 -4.5l-7 -92q26 -2 45 -6t31 -8q14 -4 24 -10q-1 -20 -8 -37.5t-21 -30.5q-11 3 -24 7q-11 3 -27.5 5.5t-36.5 2.5q-72 0 -103 -48.5t-31 -146.5q0 -99 33 -145.5t105 -46.5q20 0 37.5 2.5t30.5 5.5q15 4 26 9
q13 -11 20 -29t9 -39q-11 -7 -27 -12q-14 -5 -34.5 -10t-48.5 -7l7 -92q-1 -1 -12 -4.5t-30 -3.5q-17 0 -28.5 3.5t-12.5 4.5l7 93q-93 11 -139 79.5t-46 191.5t46 191.5t139 79.5l-7 93v0z" />
    <glyph glyph-name="sterling" unicode="&#xa3;" horiz-adv-x="532" 
d="M242 301q5 -26 6 -51.5t-5.5 -52t-22.5 -53.5t-44 -54h296q1 -1 4.5 -13t3.5 -32t-3.5 -32t-4.5 -13h-402v90q32 30 49.5 58t24.5 53.5t5.5 50.5t-7.5 49h-82q-1 1 -3.5 10.5t-2.5 26.5q0 15 2.5 24.5t3.5 10.5h61q-11 30 -18.5 62.5t-7.5 69.5q0 49 15.5 84.5t44 58
t67 33t85.5 10.5q55 0 99 -11.5t70 -22.5q2 -22 -5.5 -40.5t-23.5 -31.5q-18 7 -52 14.5t-72 8.5q-54 0 -89.5 -24t-35.5 -82q0 -32 8.5 -64.5t18.5 -64.5h182q0 -1 3 -10t3 -24q0 -16 -3 -26.5t-3 -11.5h-165z" />
    <glyph glyph-name="currency" unicode="&#xa4;" horiz-adv-x="595" 
d="M414 104q-50 -36 -116 -36q-33 0 -62.5 9.5t-54.5 26.5l-73 -73q-5 0 -10 3q-11 3 -23 16q-12 12 -15 21q-2 5 -2 10l74 74q-17 24 -27 53.5t-10 62.5q0 32 10 61.5t27 54.5l-74 74q0 5 3 10q3 10 15 22t23 16q5 2 9 2l74 -74q51 37 116 37q32 0 61.5 -10t54.5 -27l73 74
q5 0 10 -2q9 -3 22 -16q11 -12 15 -22q2 -5 3 -10l-73 -74q17 -24 27 -54t10 -62q0 -33 -10 -62.5t-27 -54.5l74 -73q-1 -5 -3 -10t-5 -10.5t-9 -11.5q-7 -8 -12.5 -11t-10.5 -5t-10 -2zM298 404q-28 0 -52 -10t-42 -28t-28.5 -42.5t-10.5 -52.5t10.5 -52.5t28.5 -42.5
t42 -28t52 -10t52.5 10t42.5 28t28 42.5t10 52.5t-10 52.5t-28 42.5t-42.5 28t-52.5 10z" />
    <glyph glyph-name="yen" unicode="&#xa5;" horiz-adv-x="618" 
d="M490 677q6 1 14 3q7 2 16 3t22 1q11 0 20 -1t16 -3t13 -3l-206 -336h129q5 -13 5 -31q0 -9 -1.5 -16.5t-3.5 -15.5h-162v-72h162q5 -13 5 -30q0 -18 -5 -33h-162v-136q-5 -2 -12 -4q-12 -3 -35 -3q-22 0 -34 3q-7 2 -12 4v136h-164q-5 17 -5 33q0 17 5 30h164v72h-164
q-5 17 -5 32q0 18 5 31h130l-194 334q6 2 14 4q7 2 17 3.5t24 1.5q13 0 23 -1t17 -3q8 -2 14 -4l169 -298l181 299v0z" />
    <glyph glyph-name="brokenbar" unicode="&#xa6;" horiz-adv-x="274" 
d="M101 787q6 1 15 2t23 1q12 0 21.5 -1t15.5 -2q7 -2 13 -3v-445q-6 -2 -13 -4q-12 -3 -37 -3q-26 0 -38 3q-7 2 -12 4v445zM101 259q6 1 15 2t23 1q12 0 21.5 -1t15.5 -2q7 -2 13 -3v-445q-6 -2 -13 -4q-12 -3 -37 -3q-26 0 -38 3q-7 2 -12 4v445z" />
    <glyph glyph-name="section" unicode="&#xa7;" horiz-adv-x="483" 
d="M334 131q0 25 -20 38.5t-50.5 23t-66 18t-66 23t-50.5 38.5t-20 65q0 38 19 66.5t39 45.5q-21 16 -34.5 39.5t-13.5 61.5q0 71 50 105.5t132 34.5q43 0 79 -7t60 -15q2 -15 -2.5 -34t-17.5 -30q-12 3 -42 8.5t-62 5.5q-51 0 -80.5 -15.5t-29.5 -51.5q0 -25 19.5 -38.5
t48.5 -22.5t63.5 -17t63.5 -22.5t48.5 -39t19.5 -65.5q0 -37 -18 -63t-35 -43q26 -17 42.5 -42.5t16.5 -67.5q0 -39 -16 -65.5t-43 -43t-63.5 -24t-77.5 -7.5q-35 0 -64.5 3.5t-51.5 8.5q-26 5 -46 13q-4 17 0.5 36t20.5 30q6 -2 19.5 -4.5t31.5 -5.5t38 -5t40 -2
q53 0 86 14.5t33 52.5zM182 416q-12 -11 -24 -27.5t-12 -38.5q0 -21 14 -33.5t36.5 -21t50.5 -14t55 -13.5q12 12 23 27.5t11 37.5q0 21 -14 33.5t-36.5 20.5t-49.5 14t-54 15z" />
    <glyph glyph-name="dieresis" unicode="&#xa8;" horiz-adv-x="455" 
d="M184 617q-5 -2 -12 -3q-12 -3 -33 -3q-23 0 -35 3q-7 1 -11 3v81q4 1 11 3q6 1 14.5 2t20.5 1q11 0 19 -1t14 -2l12 -3v-81zM354 617q-5 -2 -12 -3q-12 -3 -34 -3q-24 0 -34 3q-6 1 -11 3v81q5 1 11 3q5 1 13.5 2t20.5 1q11 0 19.5 -1t14.5 -2l12 -3v-81z" />
    <glyph glyph-name="copyright" unicode="&#xa9;" horiz-adv-x="801" 
d="M401 -6q-72 0 -135 27t-110 74t-74 110t-27 135t27 134.5t74 109.5t110 74t135 27t134.5 -27t109.5 -74t74 -109.5t27 -134.5t-27 -135t-74 -110t-109.5 -74t-134.5 -27zM401 619q-58 0 -109 -22t-89 -59.5t-60 -88.5t-22 -109t22 -109t60 -89t89 -60t109 -22t109 22
t88.5 60t59.5 89t22 109t-22 109t-59.5 88.5t-88.5 59.5t-109 22zM404 147q-87 0 -131 51.5t-44 148.5q0 199 175 199q25 0 44 -3.5t33 -7.5q16 -5 28 -11q0 -33 -24 -54q-11 4 -23 8q-11 3 -24 5.5t-27 2.5q-25 0 -44.5 -7t-33.5 -23.5t-21.5 -43.5t-7.5 -66q0 -38 7.5 -64
t21.5 -42t34 -22.5t44 -6.5q16 0 30 2t25 4l24 6q14 -9 19 -23.5t5 -29.5q-12 -7 -29 -12q-14 -5 -34.5 -8t-46.5 -3z" />
    <glyph glyph-name="ordfeminine" unicode="&#xaa;" horiz-adv-x="361" 
d="M76 606q14 7 32 12q15 5 34.5 8.5t42.5 3.5q63 0 90 -27.5t27 -83.5v-212q-3 -2 -7 -3q-8 -3 -20 -3q-13 0 -20 3q-4 1 -8 3l-7 29q-14 -19 -37.5 -30t-54.5 -11q-44 0 -70.5 26t-26.5 77t30.5 75t88.5 24q26 0 43.5 -1t20.5 -2v22q0 55 -57 55q-16 0 -30.5 -2.5
t-25.5 -5.5q-13 -4 -26 -7q-8 10 -13.5 23t-5.5 27zM234 445q-3 1 -19 1.5t-37 0.5q-28 0 -43 -11.5t-15 -37.5t13 -37t36 -11q32 0 48.5 23t16.5 54v18zM299 244q5 -14 5 -29t-5 -29h-241q-9 31 0 58h241z" />
    <glyph glyph-name="guillemotleft" unicode="&#xab;" horiz-adv-x="521" 
d="M256 509q13 -10 21.5 -26t11.5 -33l-156 -181l156 -180q-3 -17 -11.5 -33t-21.5 -26l-203 196q-2 5 -4 11q-3 10 -3 29q0 21 3 33q2 7 4 12zM436 494q13 -9 20.5 -24.5t11.5 -31.5l-145 -169l145 -168q-4 -16 -11.5 -31.5t-20.5 -24.5l-190 183q-2 4 -4 10q-3 9 -3 28
q0 21 3 32q2 6 4 11z" />
    <glyph glyph-name="logicalnot" unicode="&#xac;" horiz-adv-x="605" 
d="M530 175q-5 -3 -11 -5q-5 -2 -13 -3t-18 -1q-11 0 -19 1t-13 3q-6 2 -11 5v179h-383q-3 5 -5 12q-2 5 -3 13t-1 17q0 10 1 17.5t3 13.5t5 12h468v-264z" />
    <glyph glyph-name="uni00AD" unicode="&#xad;" 
 />
    <glyph glyph-name="registered" unicode="&#xae;" horiz-adv-x="550" 
d="M275 256q-45 0 -84 17t-68 46t-46 68t-17 84t17 84t46 68t68 46t84 17t84 -17t68 -46t46 -68t17 -84t-17 -84t-46 -68t-68 -46t-84 -17zM275 642q-35 0 -66.5 -13.5t-54.5 -36.5t-36.5 -54t-13.5 -67t13.5 -67t36.5 -54t54.5 -36.5t66.5 -13.5q36 0 67 13.5t54 36.5
t36.5 54t13.5 67t-13.5 67t-36.5 54t-54 36.5t-67 13.5zM290 589q36 0 56.5 -18.5t20.5 -50.5q0 -23 -11 -39.5t-33 -24.5l58 -88l-8 -4q-8 -3 -19 -3q-9 0 -17 2q-4 1 -6 2l-57 86h-32v-86q-2 -1 -6 -2q-8 -2 -15 -2q-8 0 -16 2q-4 1 -6 2v224h91zM287 488q35 0 35 32
q0 33 -35 33h-45v-65h45z" />
    <glyph glyph-name="macron" unicode="&#xaf;" horiz-adv-x="407" 
d="M41 630q-11 32 0 61h311q6 -14 5.5 -30.5t-5.5 -30.5h-311z" />
    <glyph glyph-name="degree" unicode="&#xb0;" horiz-adv-x="352" 
d="M48 617q0 23 8 46t24.5 41t40.5 29t56 11q31 0 55 -11t39.5 -28.5t23.5 -39.5t8 -45t-8 -45.5t-23.5 -40t-39.5 -28t-55 -10.5q-33 0 -57.5 10.5t-40 27.5t-23.5 38.5t-8 44.5zM245 619q0 27 -17 49t-52 22t-53 -23t-18 -49t17 -47.5t54 -21.5q35 0 52 21.5t17 48.5z" />
    <glyph glyph-name="plusminus" unicode="&#xb1;" horiz-adv-x="510" 
d="M76 365q-2 5 -3 10q-3 9 -3 27t3 27q1 5 3 10h142v112q5 1 10 3q5 1 11.5 2t15.5 1q8 0 15 -1t12 -2q5 -2 10 -3v-112h142q1 -5 3 -10q1 -5 2 -12t1 -15q0 -9 -1 -15.5t-2 -11.5q-2 -5 -3 -10h-142v-112q-5 -2 -10 -3q-9 -3 -27 -3t-27 3q-5 1 -10 3v112h-142zM76 127
q-2 5 -3 10q-3 9 -3 27t3 27q1 5 3 10h358q1 -5 3 -10q1 -5 2 -12t1 -15q0 -9 -1 -15.5t-2 -11.5q-2 -5 -3 -10h-358z" />
    <glyph glyph-name="uni00B2" unicode="&#xb2;" horiz-adv-x="298" 
d="M28 387q0 34 12.5 57t31.5 39t40.5 27.5t40.5 23t31.5 24.5t12.5 33q0 23 -17.5 35t-49.5 12q-20 0 -38.5 -4t-25.5 -6q-10 11 -14 23.5t-3 26.5q12 4 27 8q13 3 30.5 5.5t38.5 2.5q54 0 87.5 -25t33.5 -74q0 -28 -10.5 -47t-27 -33t-36.5 -24.5t-38.5 -22.5t-34.5 -26.5
t-23 -36.5h158q5 -13 5 -30q0 -8 -1 -15t-4 -14h-222l-2 12q-1 5 -1.5 12.5t-0.5 16.5z" />
    <glyph glyph-name="uni00B3" unicode="&#xb3;" horiz-adv-x="297" 
d="M263 441q0 -44 -31 -72t-108 -28q-23 0 -40.5 2.5t-29.5 6.5q-14 4 -25 10q0 13 4 26.5t14 21.5l22 -6q22 -5 52 -5q42 0 58 14t16 37q0 50 -61 50h-47q-10 27 0 54h47q27 0 38.5 11.5t11.5 30.5q0 44 -58 44q-15 0 -28 -1.5t-23 -3.5q-11 -2 -21 -4q-8 8 -13 21t-4 27
q11 4 26 8q12 3 29.5 6t38.5 3q57 0 89.5 -23.5t32.5 -68.5q0 -26 -10 -44.5t-33 -30.5q25 -11 39 -31t14 -55z" />
    <glyph glyph-name="acute" unicode="&#xb4;" horiz-adv-x="224" 
d="M78 637q-18 3 -33 10.5t-24 20.5l95 141q12 1 25 -1t25 -7.5t21.5 -12.5t15.5 -16z" />
    <glyph glyph-name="mu" unicode="&#xb5;" horiz-adv-x="581" 
d="M392 519q6 1 13 3q6 2 15 3t22 1t22.5 -1t15.5 -3l12 -3v-512q-5 -2 -12 -4q-12 -3 -38 -3q-25 0 -37 3q-7 2 -13 4v38q-47 -55 -126 -55q-36 0 -59 10.5t-37 24.5q4 -65 11 -112t14 -79q8 -37 16 -62q-10 -8 -24 -13t-29 -7.5t-29.5 -1.5t-26.5 5q-4 20 -8 53
q-3 28 -5.5 71.5t-2.5 106.5v533q6 1 13 3q6 2 15 3t22 1t22.5 -1t15.5 -3l12 -3v-361q0 -38 20.5 -62.5t73.5 -24.5q35 0 64.5 19t47.5 45v384v0z" />
    <glyph glyph-name="paragraph" unicode="&#xb6;" horiz-adv-x="586" 
d="M206 329q-45 1 -78.5 17t-56 42t-33 59t-10.5 67q1 35 12.5 68t35 59t57.5 42t80 16h72v-921q-5 -2 -10 -3t-12 -1.5t-17 -0.5q-11 0 -18.5 0.5t-12.5 1.5q-6 1 -9 3v551zM492 -222q-4 -2 -10 -3q-5 -1 -12.5 -1.5t-17.5 -0.5q-11 0 -18 0.5t-12 1.5t-9 3v916q4 1 9 2
t12 2t18 1q10 0 17.5 -1t12.5 -2q6 -1 10 -2v-916z" />
    <glyph glyph-name="periodcentered" unicode="&#xb7;" horiz-adv-x="230" 
d="M161 244q-5 -2 -12 -4q-12 -3 -34 -3q-25 0 -35 3q-7 2 -11 4v81q4 1 11 3q5 2 14 3t21 1q11 0 19.5 -1t14.5 -3l12 -3v-81z" />
    <glyph glyph-name="cedilla" unicode="&#xb8;" horiz-adv-x="296" 
d="M164 36l-11 -62q57 0 80.5 -26.5t23.5 -68.5q0 -50 -32 -75t-89 -25q-23 0 -40 3.5t-28 8.5q-13 5 -23 12q-2 29 21 42q8 -4 25.5 -9t39.5 -5q27 0 45 11.5t18 39.5q0 20 -13.5 33t-42.5 13h-36l-13 14l20 107z" />
    <glyph glyph-name="uni00B9" unicode="&#xb9;" horiz-adv-x="244" 
d="M21 623q35 9 59 24.5t43 36.5q8 2 16.5 3t17.5 1q17 0 32 -4v-335q-8 -2 -16 -3t-16 -1q-20 0 -36 4v215v22t1 19q-17 -13 -39 -22.5t-45 -13.5q-10 9 -14.5 24t-2.5 30z" />
    <glyph glyph-name="ordmasculine" unicode="&#xba;" horiz-adv-x="375" 
d="M52 463q0 91 35 129t101 38q65 0 100.5 -37.5t35.5 -129.5t-35.5 -130t-100.5 -38q-66 0 -101 38t-35 130zM252 463q0 65 -16 88t-48 23q-34 0 -49.5 -23t-15.5 -88q0 -33 4 -54.5t12 -34t20 -17.5t29 -5q16 0 28 5t20 17.5t12 34t4 54.5zM309 244q2 -6 3 -13t1 -15
t-1 -16t-3 -14h-244q-2 6 -3 14t-1 16t1 15t3 13h244z" />
    <glyph glyph-name="guillemotright" unicode="&#xbb;" horiz-adv-x="521" 
d="M468 311q2 -5 4 -12q2 -6 3 -14t1 -19q0 -10 -1 -17t-3 -12q-2 -6 -4 -11l-202 -196q-14 10 -22 26t-12 33l156 180l-156 181q4 17 12 33t22 26zM275 309q1 -5 3 -11q2 -5 3 -13.5t1 -18.5q0 -9 -1 -16t-3 -12q-2 -6 -3 -10l-190 -183q-12 9 -20 24.5t-11 31.5l145 168
l-145 169q3 16 11 31.5t20 24.5z" />
    <glyph glyph-name="onequarter" unicode="&#xbc;" horiz-adv-x="670" 
d="M491 696l9 3q5 1 12 2t17 1q9 0 16 -1t12 -2l9 -3l-387 -700q-5 -2 -10 -3q-11 -3 -27 -3t-26 3q-6 1 -11 3zM31 623q35 9 59.5 24.5t43.5 36.5q13 4 33 4q19 0 32 -4v-335q-8 -2 -16 -3t-16 -1q-20 0 -36 4v215v22t1 19q-17 -13 -38.5 -22.5t-45.5 -13.5q-10 9 -14.5 24
t-2.5 30zM629 133q2 -6 3 -12t1 -13q0 -8 -1 -13.5t-3 -11.5h-39v-79q-13 -4 -29 -4q-17 0 -29 4v79h-170q-2 5 -3 10.5t-1 11.5q0 13 3 21l164 212q15 5 33 5q17 0 32 -5v-205h39zM432 133h100v129z" />
    <glyph glyph-name="onehalf" unicode="&#xbd;" horiz-adv-x="722" 
d="M500 699q5 1 12 2t17 1q9 0 16 -1t12 -2l9 -3l-387 -700q-5 -2 -10 -3q-11 -3 -27 -3t-26 3q-6 1 -11 3l386 700zM134 684q13 4 33 4q19 0 32 -4v-335q-8 -2 -16 -3t-16 -1q-20 0 -36 4v215v22t1 19q-17 -13 -38.5 -22.5t-45.5 -13.5q-10 9 -14.5 24t-2.5 30
q35 9 59.5 24.5t43.5 36.5zM462 332q12 4 27 8q13 3 30 5.5t38 2.5q54 0 88 -25t34 -74q0 -28 -10.5 -47t-27 -33t-36.5 -24.5t-39 -22.5t-35 -26.5t-23 -36.5h158q6 -15 6 -30q0 -16 -6 -29h-222l-2 12q-1 5 -1.5 12.5t-0.5 16.5q0 34 12.5 57t31.5 39t40.5 27.5t40.5 23
t31.5 24.5t12.5 33q0 23 -17 35t-48 12q-21 0 -40 -3.5t-26 -6.5q-19 21 -16 50z" />
    <glyph glyph-name="threequarters" unicode="&#xbe;" horiz-adv-x="717" 
d="M547 699q5 1 12 2t17 1q9 0 16 -1t12 -2l9 -3l-387 -700q-5 -2 -10 -3q-11 -3 -27 -3t-26 3q-6 1 -11 3l386 700zM53 677q11 4 25 8q12 3 29.5 6t38.5 3q57 0 89.5 -23.5t32.5 -68.5q0 -26 -10 -44.5t-33 -30.5q25 -11 39.5 -31t14.5 -55q0 -44 -31.5 -72t-108.5 -28
q-23 0 -40.5 2.5t-29.5 6.5q-14 4 -25 10q0 13 4.5 26.5t14.5 21.5q10 -3 21 -6q22 -5 52 -5q42 0 58 14t16 37q0 50 -61 50h-46q-11 27 0 54h46q27 0 39 11.5t12 30.5q0 44 -59 44q-15 0 -28 -1.5t-23 -3.5q-11 -2 -21 -4q-8 8 -12.5 21t-3.5 27zM572 338q15 5 33 5
q17 0 32 -5v-205h39q2 -6 3 -12t1 -13q0 -8 -1 -13.5t-3 -11.5h-39v-79q-13 -4 -29 -4q-17 0 -29 4v79h-170q-2 5 -3 11t-1 12q0 12 3 20zM579 133v129l-100 -129h100z" />
    <glyph glyph-name="questiondown" unicode="&#xbf;" horiz-adv-x="429" 
d="M203 513q5 1 13 3q7 2 16.5 3t22.5 1q14 0 23 -1t16 -3t13 -3v-94q-6 -2 -13 -4q-14 -3 -39 -3q-26 0 -39 3q-8 2 -13 4v94zM37 4q0 49 13.5 80.5t33 54t43 39t43 36t33 45.5t13.5 66l9 3q5 2 12 3t17 1q9 0 16.5 -1t12.5 -3q6 -2 11 -3q0 -54 -11.5 -87.5t-28.5 -56.5
t-36.5 -39t-36.5 -33t-28.5 -40t-11.5 -60q0 -52 30 -74t83 -22q27 0 48 3t36 8q18 5 31 12q36 -25 31 -71q-19 -10 -43 -18q-21 -7 -50 -12t-67 -5q-44 0 -81 10.5t-64 32t-42.5 54t-15.5 77.5z" />
    <glyph glyph-name="Agrave" unicode="&#xc0;" horiz-adv-x="654" 
d="M390 782q-9 -13 -24 -20.5t-33 -10.5l-125 135q11 17 37 28.5t50 8.5zM267 713q7 1 17 3q8 2 18.5 3t24.5 1t25 -1t19 -3q9 -2 16 -3l251 -706q-6 -2 -14 -4q-14 -3 -41 -3q-26 0 -38 3q-7 2 -12 4l-62 176h-296l-63 -176q-6 -2 -13 -4q-12 -3 -36 -3q-23 0 -35 3
q-7 2 -12 4zM322 609q-3 -12 -7 -26q-3 -12 -8 -28.5t-11 -35.5l-92 -253h238l-91 253q-7 20 -12 36t-8 28q-4 14 -6 26h-3z" />
    <glyph glyph-name="Aacute" unicode="&#xc1;" horiz-adv-x="654" 
d="M367 924q12 1 25 -1t25 -7.5t21.5 -12.5t15.5 -16l-125 -135q-18 3 -33 10.5t-24 20.5zM267 713q7 1 17 3q8 2 18.5 3t24.5 1t25 -1t19 -3q9 -2 16 -3l251 -706q-6 -2 -14 -4q-14 -3 -41 -3q-26 0 -38 3q-7 2 -12 4l-62 176h-296l-63 -176q-6 -2 -13 -4q-12 -3 -36 -3
q-23 0 -35 3q-7 2 -12 4zM322 609q-3 -12 -7 -26q-3 -12 -8 -28.5t-11 -35.5l-92 -253h238l-91 253q-7 20 -12 36t-8 28q-4 14 -6 26h-3z" />
    <glyph glyph-name="Acircumflex" unicode="&#xc2;" horiz-adv-x="654" 
d="M474 801q-7 -15 -18.5 -27t-27.5 -17l-105 71l-104 -71q-16 5 -27 17t-19 27l137 114h26zM267 713q7 1 17 3q8 2 18.5 3t24.5 1t25 -1t19 -3q9 -2 16 -3l251 -706q-6 -2 -14 -4q-14 -3 -41 -3q-26 0 -38 3q-7 2 -12 4l-62 176h-296l-63 -176q-6 -2 -13 -4q-12 -3 -36 -3
q-23 0 -35 3q-7 2 -12 4zM322 609q-3 -12 -7 -26q-3 -12 -8 -28.5t-11 -35.5l-92 -253h238l-91 253q-7 20 -12 36t-8 28q-4 14 -6 26h-3z" />
    <glyph glyph-name="Atilde" unicode="&#xc3;" horiz-adv-x="654" 
d="M182 798q8 15 20 27q11 11 26.5 20t38.5 11q21 1 36 -4.5t28 -12l25 -12.5t27 -5q10 0 17.5 4t12.5 9q6 5 10 13q14 -3 27.5 -11.5t20.5 -22.5q-9 -15 -22 -26q-11 -10 -27.5 -19t-39.5 -10q-21 -1 -36 4t-27 12t-23.5 12.5t-26.5 4.5q-12 -1 -20 -5t-13 -9q-6 -5 -9 -12
q-16 2 -28 10.5t-17 21.5zM267 713q7 1 17 3q8 2 18.5 3t24.5 1t25 -1t19 -3q9 -2 16 -3l251 -706q-6 -2 -14 -4q-14 -3 -41 -3q-26 0 -38 3q-7 2 -12 4l-62 176h-296l-63 -176q-6 -2 -13 -4q-12 -3 -36 -3q-23 0 -35 3q-7 2 -12 4zM322 609q-3 -12 -7 -26q-3 -12 -8 -28.5
t-11 -35.5l-92 -253h238l-91 253q-7 20 -12 36t-8 28q-4 14 -6 26h-3z" />
    <glyph glyph-name="Adieresis" unicode="&#xc4;" horiz-adv-x="654" 
d="M194 843q5 1 11 3q5 1 13.5 2t20.5 1q11 0 19.5 -1t14.5 -2l12 -3v-81q-5 -2 -12 -3q-12 -3 -34 -3q-24 0 -34 3q-6 1 -11 3v81zM364 843q5 1 11 3q5 1 13.5 2t20.5 1q11 0 19.5 -1t14.5 -2l12 -3v-81q-5 -2 -12 -3q-12 -3 -34 -3q-24 0 -34 3q-6 1 -11 3v81zM267 713
q7 1 17 3q8 2 18.5 3t24.5 1t25 -1t19 -3q9 -2 16 -3l251 -706q-6 -2 -14 -4q-14 -3 -41 -3q-26 0 -38 3q-7 2 -12 4l-62 176h-296l-63 -176q-6 -2 -13 -4q-12 -3 -36 -3q-23 0 -35 3q-7 2 -12 4zM322 609q-3 -12 -7 -26q-3 -12 -8 -28.5t-11 -35.5l-92 -253h238l-91 253
q-7 20 -12 36t-8 28q-4 14 -6 26h-3z" />
    <glyph glyph-name="Aring" unicode="&#xc5;" horiz-adv-x="654" 
d="M638 7q-6 -2 -14 -4q-14 -3 -41 -3q-26 0 -38 3q-7 2 -12 4l-62 176h-296l-63 -176q-6 -2 -13 -4q-12 -3 -36 -3q-23 0 -35 3q-7 2 -12 4l243 683q-24 13 -39 36.5t-15 57.5q0 27 10 47.5t27 34.5t38.5 21t44.5 7q22 0 43.5 -7t39 -20.5t28 -34.5t10.5 -48
q0 -32 -14.5 -55t-37.5 -36zM388 784q0 23 -16 41t-48 18t-47 -18.5t-15 -40.5q0 -23 15 -41.5t47 -18.5t48 18.5t16 41.5zM351 519q-7 20 -12 36t-8 28q-4 14 -6 26h-3q-3 -12 -7 -26q-3 -12 -8 -28.5t-11 -35.5l-92 -253h238z" />
    <glyph glyph-name="AE" unicode="&#xc6;" horiz-adv-x="865" 
d="M804 720q10 -20 9 -43t-9 -40h-266v-232h216q16 -43 0 -83h-216v-239h276q8 -21 8 -43.5t-8 -39.5h-370v179h-229l-102 -171q-22 -8 -55 -8q-15 0 -29.5 1.5t-23.5 6.5l433 712h366zM444 262v301l-180 -301h180z" />
    <glyph glyph-name="Ccedilla" unicode="&#xc7;" horiz-adv-x="562" 
d="M523 67q4 -9 5.5 -16.5t2.5 -13.5q1 -7 0 -13q-20 -10 -46 -17q-23 -7 -57 -12t-80 -5l-14 -45q57 0 81.5 -26.5t24.5 -68.5q0 -50 -33 -75t-90 -25q-23 0 -40 3.5t-28 8.5q-13 5 -23 12q-1 14 4.5 27t16.5 19q8 -4 25.5 -9t39.5 -5q27 0 44 9.5t17 37.5q0 20 -12.5 33
t-41.5 13h-36l-13 14l28 81q-119 16 -179.5 107.5t-60.5 258.5q0 183 73.5 276.5t218.5 93.5q42 0 73.5 -5.5t53.5 -11.5q26 -8 44 -17v-11q-1 -5 -2 -13t-5 -16q-4 -10 -7.5 -16t-7.5 -11t-9 -8q-18 6 -38 11q-17 5 -40.5 8.5t-50.5 3.5q-43 0 -79 -13t-62 -45.5
t-40.5 -87.5t-14.5 -139t14.5 -138t40.5 -86t62 -44.5t79 -12.5q30 0 55 3t44 8q22 5 40 12q4 -3 8 -8q7 -8 15 -26z" />
    <glyph glyph-name="Egrave" unicode="&#xc8;" horiz-adv-x="556" 
d="M172 886q11 17 37 28.5t50 8.5l95 -141q-9 -13 -24 -20.5t-33 -10.5zM495 720q3 -9 5.5 -18.5t2.5 -20.5q0 -23 -8 -44h-304v-232h254q3 -9 5.5 -19t2.5 -21q0 -21 -8 -42h-254v-240h314q3 -10 5.5 -19.5t2.5 -20.5q0 -21 -8 -43h-416v720h406z" />
    <glyph glyph-name="Eacute" unicode="&#xc9;" horiz-adv-x="556" 
d="M271 753q-18 3 -33 10.5t-24 20.5l95 141q12 1 25 -1t25 -7.5t21.5 -12.5t15.5 -16zM495 720q3 -9 5.5 -18.5t2.5 -20.5q0 -23 -8 -44h-304v-232h254q3 -9 5.5 -19t2.5 -21q0 -21 -8 -42h-254v-240h314q3 -10 5.5 -19.5t2.5 -20.5q0 -21 -8 -43h-416v720h406z" />
    <glyph glyph-name="Ecircumflex" unicode="&#xca;" horiz-adv-x="556" 
d="M442 801q-8 -15 -19 -27t-27 -17l-105 71l-104 -71q-16 5 -27.5 17t-19.5 27l138 114h26zM495 720q3 -9 5.5 -18.5t2.5 -20.5q0 -23 -8 -44h-304v-232h254q3 -9 5.5 -19t2.5 -21q0 -21 -8 -42h-254v-240h314q3 -10 5.5 -19.5t2.5 -20.5q0 -21 -8 -43h-416v720h406z" />
    <glyph glyph-name="Edieresis" unicode="&#xcb;" horiz-adv-x="556" 
d="M251 762q-5 -2 -12 -3q-12 -3 -33 -3q-25 0 -35 3q-7 1 -11 3v81q4 1 11 3q5 1 14 2t21 1q11 0 19 -1t14 -2l12 -3v-81zM421 762q-5 -2 -12 -3q-12 -3 -34 -3q-24 0 -34 3q-6 1 -11 3v81q5 1 11 3q5 1 13.5 2t20.5 1q11 0 19.5 -1t14.5 -2l12 -3v-81zM495 720
q3 -9 5.5 -18.5t2.5 -20.5q0 -23 -8 -44h-304v-232h254q3 -9 5.5 -19t2.5 -21q0 -21 -8 -42h-254v-240h314q3 -10 5.5 -19.5t2.5 -20.5q0 -21 -8 -43h-416v720h406z" />
    <glyph glyph-name="Igrave" unicode="&#xcc;" horiz-adv-x="280" 
d="M27 886q11 17 37 28.5t50 8.5l95 -141q-9 -13 -24 -20.5t-33 -10.5zM89 713q6 1 13 3q6 2 15 3t22 1t22.5 -1t16.5 -3q8 -2 13 -3v-706q-5 -2 -13 -4q-14 -3 -38 -3q-27 0 -39 3q-7 2 -12 4v706z" />
    <glyph glyph-name="Iacute" unicode="&#xcd;" horiz-adv-x="280" 
d="M116 753q-18 3 -33 10.5t-24 20.5l95 141q12 1 25 -1t25 -7.5t21.5 -12.5t15.5 -16zM89 713q6 1 13 3q6 2 15 3t22 1t22.5 -1t16.5 -3q8 -2 13 -3v-706q-5 -2 -13 -4q-14 -3 -38 -3q-27 0 -39 3q-7 2 -12 4v706z" />
    <glyph glyph-name="Icircumflex" unicode="&#xce;" horiz-adv-x="280" 
d="M291 801q-8 -15 -19.5 -27t-26.5 -17l-105 71l-104 -71q-16 5 -27.5 17t-19.5 27l138 114h26zM89 713q6 1 13 3q6 2 15 3t22 1t22.5 -1t16.5 -3q8 -2 13 -3v-706q-5 -2 -13 -4q-14 -3 -38 -3q-27 0 -39 3q-7 2 -12 4v706z" />
    <glyph glyph-name="Idieresis" unicode="&#xcf;" horiz-adv-x="280" 
d="M101 762q-5 -2 -12 -3q-12 -3 -33 -3q-23 0 -35 3q-7 1 -11 3v81q4 1 11 3q6 1 14.5 2t20.5 1q11 0 19 -1t14 -2l12 -3v-81zM271 762q-5 -2 -12 -3q-12 -3 -34 -3q-24 0 -34 3q-6 1 -11 3v81q5 1 11 3q5 1 13.5 2t20.5 1q11 0 19.5 -1t14.5 -2l12 -3v-81zM89 713
q6 1 13 3q6 2 15 3t22 1t22.5 -1t16.5 -3q8 -2 13 -3v-706q-5 -2 -13 -4q-14 -3 -38 -3q-27 0 -39 3q-7 2 -12 4v706z" />
    <glyph glyph-name="Eth" unicode="&#xd0;" horiz-adv-x="677" 
d="M323 720q69 0 124 -19t92.5 -61.5t57.5 -111.5t20 -168t-20 -168t-57.5 -111.5t-92.5 -61.5t-124 -19h-222v322h-79q-5 16 -5 35.5t5 33.5h79v329h222zM203 391h142q5 -14 5 -34.5t-5 -34.5h-142v-237h113q44 0 79.5 11.5t60.5 42t38.5 84t13.5 137.5q0 85 -13.5 138.5
t-38.5 84t-60.5 41.5t-79.5 11h-113v-244z" />
    <glyph glyph-name="Ntilde" unicode="&#xd1;" horiz-adv-x="700" 
d="M422 823q11 0 20 4t15 9q7 5 12 13q14 -5 24 -18.5t13 -27.5q-1 -1 -7 -8.5t-17.5 -16t-28.5 -15.5t-38 -7t-35.5 5t-26 11.5t-23 11.5t-26.5 5q-12 0 -21 -4t-15 -9q-7 -6 -12 -13q-31 16 -37 45q10 13 23 24q11 9 28 17t40 8q21 0 35.5 -5.5t26.5 -11.5t23.5 -11.5
t26.5 -5.5zM239 462q-14 24 -24.5 47.5t-18.5 41.5q-9 21 -16 40h-4q1 -20 3 -46q2 -22 3 -53t1 -69v-416q-5 -2 -12 -4q-12 -3 -36 -3q-25 0 -35 3q-7 2 -11 4v706l15 3q8 2 19.5 3t26.5 1t26 -1t19 -3l15 -3l248 -451q14 -25 25.5 -48.5t19.5 -42.5q10 -22 18 -42h3
q-2 23 -4 49q-3 45 -3 118v417l12 3q6 2 14.5 3t21.5 1q12 0 21 -1t14 -3q6 -2 11 -3v-706q-6 -2 -15 -4q-15 -3 -44 -3q-31 0 -46 3q-10 2 -16 4z" />
    <glyph glyph-name="Ograve" unicode="&#xd2;" horiz-adv-x="680" 
d="M421 785q-17 -25 -57 -31l-122 132q11 17 37 28.5t50 8.5zM58 360q0 96 19.5 166t56.5 115.5t89 67t117 21.5t117 -21.5t89 -66.5t56.5 -115t19.5 -167t-19.5 -167t-56 -115t-88.5 -66.5t-118 -21.5t-118 21.5t-88.5 66.5t-56 115t-19.5 167zM515 360q0 83 -12.5 138
t-35 87.5t-55 46t-72.5 13.5t-72 -13.5t-55 -46t-35.5 -87.5t-12.5 -138t12.5 -138t35.5 -87.5t55 -46t72 -13.5t72.5 13.5t55 46t35 87.5t12.5 138z" />
    <glyph glyph-name="Oacute" unicode="&#xd3;" horiz-adv-x="680" 
d="M409 944q24 2 50 -9t37 -28l-123 -133q-18 3 -33 10.5t-24 21.5zM58 360q0 96 19.5 166t56.5 115.5t89 67t117 21.5t117 -21.5t89 -66.5t56.5 -115t19.5 -167t-19.5 -167t-56 -115t-88.5 -66.5t-118 -21.5t-118 21.5t-88.5 66.5t-56 115t-19.5 167zM515 360
q0 83 -12.5 138t-35 87.5t-55 46t-72.5 13.5t-72 -13.5t-55 -46t-35.5 -87.5t-12.5 -138t12.5 -138t35.5 -87.5t55 -46t72 -13.5t72.5 13.5t55 46t35 87.5t12.5 138z" />
    <glyph glyph-name="Ocircumflex" unicode="&#xd4;" horiz-adv-x="680" 
d="M492 801q-8 -15 -19 -27t-27 -17l-105 71l-104 -71q-16 5 -27 17t-19 27l137 114h26zM58 360q0 96 19.5 166t56.5 115.5t89 67t117 21.5t117 -21.5t89 -66.5t56.5 -115t19.5 -167t-19.5 -167t-56 -115t-88.5 -66.5t-118 -21.5t-118 21.5t-88.5 66.5t-56 115t-19.5 167z
M515 360q0 83 -12.5 138t-35 87.5t-55 46t-72.5 13.5t-72 -13.5t-55 -46t-35.5 -87.5t-12.5 -138t12.5 -138t35.5 -87.5t55 -46t72 -13.5t72.5 13.5t55 46t35 87.5t12.5 138z" />
    <glyph glyph-name="Otilde" unicode="&#xd5;" horiz-adv-x="680" 
d="M402 839q11 0 20 4.5t15 9.5q7 6 11 14q14 -5 24.5 -17.5t13.5 -26.5q-10 -14 -22 -25q-11 -10 -27 -18t-39 -8q-18 -1 -32.5 3.5t-27 10.5t-25.5 10.5t-28 4.5q-12 -1 -20.5 -5t-14.5 -9q-7 -6 -11 -14q-17 8 -25.5 18.5t-12.5 25.5q8 14 21 25q11 9 27.5 17t39.5 9
q21 1 35.5 -3.5t26.5 -10.5t24 -10.5t27 -4.5zM340 -10q-66 0 -118 21.5t-88.5 66.5t-56 115t-19.5 167q0 96 19.5 166t56.5 115.5t89 67t117 21.5t117 -21.5t89 -66.5t56.5 -115t19.5 -167t-19.5 -167t-56 -115t-88.5 -66.5t-118 -21.5zM340 645q-40 0 -72 -13.5t-55 -46
t-35.5 -87.5t-12.5 -138t12.5 -138t35.5 -87.5t55 -46t72 -13.5t72.5 13.5t55 46t35 87.5t12.5 138t-12.5 138t-35 87.5t-55 46t-72.5 13.5z" />
    <glyph glyph-name="Odieresis" unicode="&#xd6;" horiz-adv-x="680" 
d="M211 853q4 1 11 3q5 1 14 2t21 1q11 0 19 -1t14 -2l12 -3v-81q-5 -2 -12 -3q-12 -3 -33 -3q-25 0 -35 3q-7 1 -11 3v81zM381 853q5 1 11 3q5 1 13.5 2t20.5 1q11 0 19.5 -1t14.5 -2l12 -3v-81q-5 -2 -12 -3q-12 -3 -34 -3q-24 0 -34 3q-6 1 -11 3v81zM58 360
q0 96 19.5 166t56.5 115.5t89 67t117 21.5t117 -21.5t89 -66.5t56.5 -115t19.5 -167t-19.5 -167t-56 -115t-88.5 -66.5t-118 -21.5t-118 21.5t-88.5 66.5t-56 115t-19.5 167zM515 360q0 83 -12.5 138t-35 87.5t-55 46t-72.5 13.5t-72 -13.5t-55 -46t-35.5 -87.5t-12.5 -138
t12.5 -138t35.5 -87.5t55 -46t72 -13.5t72.5 13.5t55 46t35 87.5t12.5 138z" />
    <glyph glyph-name="multiply" unicode="&#xd7;" horiz-adv-x="472" 
d="M119 118q-5 1 -10 5q-5 3 -10 7t-11 11q-7 6 -11 11t-7 10q-4 5 -5 10l117 117l-117 117q1 4 5 9q3 5 7 10.5t11 11.5q12 12 21 18q5 4 10 5l117 -117l117 117q4 -1 9 -5q5 -3 10.5 -7.5t11.5 -10.5t10.5 -11.5t7.5 -10.5q4 -5 5 -9l-117 -117l117 -117q-1 -5 -5 -10
q-6 -9 -18 -21q-6 -7 -11.5 -11t-10.5 -7q-5 -4 -9 -5l-117 117z" />
    <glyph glyph-name="Oslash" unicode="&#xd8;" horiz-adv-x="679" 
d="M531 767q20 -2 39 -11t31 -22l-56 -93q37 -45 56.5 -114.5t19.5 -166.5t-19.5 -167t-56 -115t-88.5 -66.5t-118 -21.5q-92 0 -156 42l-46 -79q-46 2 -71 33l60 100q-34 45 -51.5 112.5t-17.5 161.5q0 96 19.5 166t56.5 115.5t89 67t117 21.5q86 0 148 -37zM440 615
q-21 17 -46.5 23.5t-54.5 6.5q-40 0 -72 -13.5t-55 -46t-35.5 -87.5t-12.5 -138q0 -110 25 -170zM232 112q21 -20 48 -28.5t59 -8.5q40 0 72.5 13.5t55 46t35 87.5t12.5 138q0 60 -8 104.5t-22 75.5z" />
    <glyph glyph-name="Ugrave" unicode="&#xd9;" horiz-adv-x="672" 
d="M215 886q11 17 37 28.5t50 8.5l92 -137q-9 -14 -24 -21.5t-33 -10.5zM588 244q0 -61 -18 -108.5t-51 -79.5t-80 -49t-104 -17t-103.5 17t-79 49.5t-50.5 80t-18 107.5v469q6 1 13 3q6 2 15 3t22 1t22 -1t16 -3t13 -3v-485q0 -72 40 -112t112 -40q73 0 112 40t39 112v485
l12 3q6 2 15 3t22 1q12 0 21.5 -1t16.5 -3q8 -2 13 -3v-469z" />
    <glyph glyph-name="Uacute" unicode="&#xda;" horiz-adv-x="672" 
d="M324 753q-18 3 -33 10.5t-24 20.5l95 141q12 1 25 -1t25 -7.5t21.5 -12.5t15.5 -16zM588 244q0 -61 -18 -108.5t-51 -79.5t-80 -49t-104 -17t-103.5 17t-79 49.5t-50.5 80t-18 107.5v469q6 1 13 3q6 2 15 3t22 1t22 -1t16 -3t13 -3v-485q0 -72 40 -112t112 -40
q73 0 112 40t39 112v485l12 3q6 2 15 3t22 1q12 0 21.5 -1t16.5 -3q8 -2 13 -3v-469z" />
    <glyph glyph-name="Ucircumflex" unicode="&#xdb;" horiz-adv-x="672" 
d="M495 801q-8 -15 -19.5 -27t-26.5 -17l-105 71l-104 -71q-16 5 -27.5 17t-19.5 27l138 114h26zM588 244q0 -61 -18 -108.5t-51 -79.5t-80 -49t-104 -17t-103.5 17t-79 49.5t-50.5 80t-18 107.5v469q6 1 13 3q6 2 15 3t22 1t22 -1t16 -3t13 -3v-485q0 -72 40 -112t112 -40
q73 0 112 40t39 112v485l12 3q6 2 15 3t22 1q12 0 21.5 -1t16.5 -3q8 -2 13 -3v-469z" />
    <glyph glyph-name="Udieresis" unicode="&#xdc;" horiz-adv-x="672" 
d="M298 767q-5 -2 -12 -3q-12 -3 -33 -3q-23 0 -35 3q-7 1 -11 3v82q4 1 11 3q6 1 14.5 2t20.5 1q11 0 19 -1t14 -2l12 -3v-82zM468 767q-5 -2 -12 -3q-12 -3 -34 -3q-24 0 -34 3q-6 1 -11 3v82q5 1 11 3q5 1 13.5 2t20.5 1q11 0 19.5 -1t14.5 -2l12 -3v-82zM588 244
q0 -61 -18 -108.5t-51 -79.5t-80 -49t-104 -17t-103.5 17t-79 49.5t-50.5 80t-18 107.5v469q6 1 13 3q6 2 15 3t22 1t22 -1t16 -3t13 -3v-485q0 -72 40 -112t112 -40q73 0 112 40t39 112v485l12 3q6 2 15 3t22 1q12 0 21.5 -1t16.5 -3q8 -2 13 -3v-469z" />
    <glyph glyph-name="Yacute" unicode="&#xdd;" horiz-adv-x="634" 
d="M350 925q12 1 25 -1t25 -7.5t21.5 -12.5t15.5 -16l-125 -135q-18 3 -33 10.5t-24 20.5zM510 713q5 1 13 3q7 2 16.5 3t23.5 1q13 0 23 -1t18 -3q9 -2 16 -3l-253 -412v-294q-6 -2 -13 -4q-12 -3 -37 -3q-28 0 -40 3q-8 2 -12 4v292l-246 414q6 1 16 3q8 2 19.5 3t26.5 1
q14 0 24.5 -1t18.5 -3l15 -3l183 -309z" />
    <glyph glyph-name="Thorn" unicode="&#xde;" horiz-adv-x="608" 
d="M89 713q6 1 13 3q6 2 15 3t22 1t22.5 -1t16.5 -3q8 -2 13 -3v-128h159q49 0 89 -15.5t68 -43.5t43 -67.5t15 -87.5t-15 -87.5t-43 -67t-68 -43t-89 -15.5h-159v-151q-5 -2 -13 -4q-14 -3 -38 -3q-27 0 -39 3q-7 2 -12 4v706zM191 243h146q60 0 91 33.5t31 94.5t-31 95
t-91 34h-146v-257z" />
    <glyph glyph-name="germandbls" unicode="&#xdf;" horiz-adv-x="572" 
d="M73 556q0 100 55.5 147t157.5 47q50 0 87 -14.5t61 -38.5t35.5 -55.5t11.5 -65.5q0 -29 -6.5 -53t-14.5 -41q-27 -4 -48 -15q-18 -9 -33 -26.5t-15 -46.5q0 -25 13 -42.5t32 -32.5t41.5 -29.5t41.5 -34t32 -47t13 -67.5q0 -76 -46.5 -113.5t-123.5 -37.5q-26 0 -46.5 2.5
t-34.5 6.5q-17 4 -30 10q-5 40 21 69q14 -5 34.5 -8t40.5 -3q41 0 65.5 18t24.5 53q0 26 -13 44t-32 33.5t-42 30.5t-42 34t-32 43.5t-13 60.5q0 40 15.5 66t35.5 41q23 18 52 27q3 9 6.5 24t3.5 32q-1 39 -23.5 67.5t-72.5 28.5q-59 0 -85.5 -28.5t-26.5 -85.5v-549
q-6 -2 -13 -4q-12 -3 -37 -3q-26 0 -38 3q-7 2 -12 4v549z" />
    <glyph glyph-name="agrave" unicode="&#xe0;" horiz-adv-x="515" 
d="M303 635q-9 -13 -24 -20.5t-33 -10.5l-125 135q11 17 37 28.5t50 8.5zM80 499q23 10 50 18q23 7 55 13t70 6q54 0 91 -12t59 -36.5t31.5 -61t9.5 -84.5v-335q-4 -2 -9 -4q-9 -3 -30 -3q-19 0 -29 3q-6 2 -11 4l-15 64q-20 -40 -60 -60.5t-97 -20.5q-71 0 -113 41.5
t-42 125.5q0 81 49 119t143 38q34 0 64 -2t50 -4v42q0 49 -23 75.5t-80 26.5q-26 0 -50 -4t-43 -9q-22 -5 -41 -12q-1 1 -8 7.5t-15 22.5q-7 16 -6.5 28.5t0.5 13.5zM346 240q-17 2 -44.5 4t-56.5 2q-51 0 -76.5 -21t-25.5 -68q0 -48 23 -69t64 -21q30 0 51.5 11.5t36 31
t21.5 44t7 51.5v35z" />
    <glyph glyph-name="aacute" unicode="&#xe1;" horiz-adv-x="515" 
d="M276 776q12 1 25.5 -1t25.5 -7.5t21.5 -12.5t15.5 -16l-125 -135q-40 6 -57 31zM80 499q23 10 50 18q23 7 55 13t70 6q54 0 91 -12t59 -36.5t31.5 -61t9.5 -84.5v-335q-4 -2 -9 -4q-9 -3 -30 -3q-19 0 -29 3q-6 2 -11 4l-15 64q-20 -40 -60 -60.5t-97 -20.5
q-71 0 -113 41.5t-42 125.5q0 81 49 119t143 38q34 0 64 -2t50 -4v41q0 51 -22.5 77t-80.5 26q-26 0 -50 -4t-43 -9q-22 -5 -41 -12q-1 1 -8 7.5t-15 22.5q-7 16 -6.5 28.5t0.5 13.5zM346 240q-17 2 -44.5 4t-56.5 2q-51 0 -76.5 -21t-25.5 -68q0 -48 23 -69t64 -21
q30 0 51.5 11.5t36 31t21.5 44t7 51.5v35z" />
    <glyph glyph-name="acircumflex" unicode="&#xe2;" horiz-adv-x="515" 
d="M408 646q-8 -15 -19 -27t-26 -17l-103 69l-102 -68q-15 5 -26 16.5t-19 26.5l135 110h25zM80 499q23 10 50 18q23 7 55 13t70 6q54 0 91 -12t59 -36.5t31.5 -61t9.5 -84.5v-335q-4 -2 -9 -4q-9 -3 -30 -3q-19 0 -29 3q-6 2 -11 4l-15 64q-20 -40 -60 -60.5t-97 -20.5
q-71 0 -113 41.5t-42 125.5q0 81 49 119t143 38q34 0 64 -2t50 -4v44q0 50 -23 75t-80 25q-26 0 -50 -4t-43 -9q-22 -5 -41 -12q-1 1 -8 7.5t-15 22.5q-7 16 -6.5 28.5t0.5 13.5zM346 240q-17 2 -44.5 4t-56.5 2q-51 0 -76.5 -21t-25.5 -68q0 -48 23 -69t64 -21
q30 0 51.5 11.5t36 31t21.5 44t7 51.5v35z" />
    <glyph glyph-name="atilde" unicode="&#xe3;" horiz-adv-x="515" 
d="M117 666q0 1 6.5 8.5t17.5 16.5t28 16.5t38 7.5q22 0 36.5 -5.5t26 -11.5t23 -11.5t26.5 -5.5q11 0 19.5 3.5t14.5 8t9 9t4 5.5q14 -5 24 -18t13 -27q0 -1 -6.5 -8.5t-17.5 -16.5t-28 -16t-38 -7t-35.5 5.5t-26.5 11.5t-23.5 11.5t-26.5 5.5q-12 0 -21 -4.5t-15 -9.5
q-7 -6 -12 -13q-30 16 -36 45zM80 499q23 10 50 18q23 7 55 13t70 6q54 0 91 -12t59 -36.5t31.5 -61t9.5 -84.5v-335q-4 -2 -9 -4q-9 -3 -30 -3q-19 0 -29 3q-6 2 -11 4l-15 64q-20 -40 -60 -60.5t-97 -20.5q-71 0 -113 41.5t-42 125.5q0 81 49 119t143 38q34 0 64 -2t50 -4
v46q0 52 -23.5 75t-79.5 23q-26 0 -50 -4t-43 -9q-22 -5 -41 -12q-1 1 -8 7.5t-15 22.5q-7 15 -6.5 28t0.5 14zM346 240q-17 2 -44.5 4t-56.5 2q-51 0 -76.5 -21t-25.5 -68q0 -48 23 -69t64 -21q30 0 51.5 11.5t36 31t21.5 44t7 51.5v35z" />
    <glyph glyph-name="adieresis" unicode="&#xe4;" horiz-adv-x="515" 
d="M130 705q5 1 11 3q5 1 13.5 2t20.5 1q11 0 19.5 -1t14.5 -2l12 -3v-81q-5 -2 -12 -3q-12 -3 -34 -3q-24 0 -34 3q-6 1 -11 3v81zM299 705q4 1 11 3q6 1 14.5 2t20.5 1q11 0 19.5 -1t14.5 -2q6 -2 11 -3v-81q-5 -2 -11 -3q-12 -3 -34 -3q-23 0 -35 3q-7 1 -11 3v81z
M80 499q23 10 50 18q23 7 55 13t70 6q54 0 91 -12t59 -36.5t31.5 -61t9.5 -84.5v-335q-4 -2 -9 -4q-9 -3 -30 -3q-19 0 -29 3q-6 2 -11 4l-15 64q-20 -40 -60 -60.5t-97 -20.5q-71 0 -113 41.5t-42 125.5q0 81 49 119t143 38q34 0 64 -2t50 -4v43q0 48 -23 74.5t-80 26.5
q-26 0 -50 -4t-43 -9q-22 -5 -41 -12q-1 1 -8 7.5t-15 22.5q-7 16 -6.5 28.5t0.5 13.5zM346 240q-17 2 -44.5 4t-56.5 2q-51 0 -76.5 -21t-25.5 -68q0 -48 23 -69t64 -21q30 0 51.5 11.5t36 31t21.5 44t7 51.5v35z" />
    <glyph glyph-name="aring" unicode="&#xe5;" horiz-adv-x="515" 
d="M141 693q0 26 10 45.5t26.5 33t37.5 20t44 6.5q22 0 43.5 -6.5t38 -19.5t27 -33t10.5 -46t-9.5 -46t-26 -33.5t-38.5 -20.5t-46 -7q-50 0 -83.5 28t-33.5 79zM317 693q0 21 -14.5 37t-44.5 16q-29 0 -43 -16.5t-14 -36.5t14 -36.5t43 -16.5q30 0 44.5 16.5t14.5 36.5z
M80 499q23 10 50 18q23 7 55 13t70 6q54 0 91 -12t59 -36.5t31.5 -61t9.5 -84.5v-335q-4 -2 -9 -4q-9 -3 -30 -3q-19 0 -29 3q-6 2 -11 4l-15 64q-20 -40 -60 -60.5t-97 -20.5q-71 0 -113 41.5t-42 125.5q0 81 49 119t143 38q34 0 64 -2t50 -4v40q0 51 -22.5 77.5
t-80.5 26.5q-26 0 -50 -4t-43 -9q-22 -5 -41 -12q-1 1 -8 7.5t-15 22.5q-7 16 -6.5 28.5t0.5 13.5zM346 240q-17 2 -44.5 4t-56.5 2q-51 0 -76.5 -21t-25.5 -68q0 -48 23 -69t64 -21q30 0 51.5 11.5t36 31t21.5 44t7 51.5v35z" />
    <glyph glyph-name="ae" unicode="&#xe6;" horiz-adv-x="769" 
d="M392 458q52 78 144 78q90 0 139.5 -50.5t49.5 -150.5q0 -21 -2 -38.5t-4 -30.5q-3 -15 -5 -27h-288q7 -90 39.5 -129t89.5 -39q26 0 46.5 4t35.5 9q18 6 31 14q13 -11 20.5 -28.5t9.5 -37.5q-15 -12 -38 -21q-20 -8 -49.5 -14.5t-69.5 -6.5q-38 0 -66.5 10t-49.5 25.5
t-34 34t-19 35.5q-6 -16 -18.5 -34.5t-33.5 -34t-51 -26t-70 -10.5q-78 0 -119 42.5t-41 124.5q0 81 46.5 116.5t140.5 35.5h105v45q0 51 -21.5 74.5t-75.5 23.5q-25 0 -48 -4t-40 -9q-20 -5 -38 -12q-14 13 -21 32t-8 40q22 10 48 18q23 7 53 13t67 6q60 0 93.5 -20.5
t51.5 -57.5zM626 348q0 22 -4 42t-14.5 35t-28 23.5t-43.5 8.5q-43 0 -73 -32.5t-36 -115.5h196q0 4 1 10q1 5 1.5 12.5t0.5 16.5zM239 239q-53 0 -75.5 -19.5t-22.5 -64.5t20 -66.5t57 -21.5q55 0 84 38t29 94v40h-92z" />
    <glyph glyph-name="ccedilla" unicode="&#xe7;" horiz-adv-x="446" 
d="M257 -59q57 0 81.5 -25.5t24.5 -66.5q0 -50 -33 -74.5t-90 -24.5q-23 0 -40 3.5t-28 8.5q-13 5 -23 12q-1 14 4.5 27.5t16.5 19.5q8 -4 25.5 -9.5t39.5 -5.5q27 0 44 9.5t17 35.5q0 18 -12.5 31.5t-41.5 13.5h-36l-13 14l25 85q-85 16 -126.5 83.5t-41.5 184.5
q0 134 55 203.5t165 69.5q36 0 61 -4t42 -9q18 -5 31 -12q-1 -20 -8 -37.5t-21 -30.5q-11 3 -24 7q-11 3 -27.5 5.5t-36.5 2.5q-72 0 -103 -48.5t-31 -146.5q0 -99 33 -145.5t105 -46.5q20 0 37.5 2.5t30.5 5.5q15 4 26 9q13 -11 20 -29t9 -39q-15 -9 -35 -15
q-18 -5 -44.5 -10t-63.5 -5z" />
    <glyph glyph-name="egrave" unicode="&#xe8;" horiz-adv-x="514" 
d="M152 739q11 17 37 28.5t50 8.5l95 -141q-9 -13 -24 -20.5t-33 -10.5zM153 232q3 -45 13.5 -75t28 -48t42 -26t55.5 -8q26 0 48 4.5t38 9.5q18 6 32 15q14 -12 22.5 -31t9.5 -41q-17 -12 -42 -21q-21 -8 -52 -14.5t-72 -6.5q-116 0 -171 69.5t-55 206.5q0 71 16 122t45 84
t70 48.5t91 15.5q93 0 145.5 -50.5t52.5 -150.5q0 -24 -2 -42.5t-4 -32.5q-3 -16 -5 -28h-306zM370 348q0 22 -5 42t-16.5 35t-30 23.5t-46.5 8.5q-49 0 -81 -35.5t-38 -118.5h214q1 6 2 17.5t1 27.5z" />
    <glyph glyph-name="eacute" unicode="&#xe9;" horiz-adv-x="514" 
d="M242 604q-18 3 -33 10.5t-24 20.5l95 141q12 1 25 -1t25 -7.5t21.5 -12.5t15.5 -16zM153 232q3 -45 13.5 -75t28 -48t42 -26t55.5 -8q26 0 48 4.5t38 9.5q18 6 32 15q14 -12 22.5 -31t9.5 -41q-17 -12 -42 -21q-21 -8 -52 -14.5t-72 -6.5q-116 0 -171 69.5t-55 206.5
q0 71 16 122t45 84t70 48.5t91 15.5q93 0 145.5 -50.5t52.5 -150.5q0 -24 -2 -42.5t-4 -32.5q-3 -16 -5 -28h-306zM370 348q0 22 -5 42t-16.5 35t-30 23.5t-46.5 8.5q-49 0 -81 -35.5t-38 -118.5h214q1 6 2 17.5t1 27.5z" />
    <glyph glyph-name="ecircumflex" unicode="&#xea;" horiz-adv-x="514" 
d="M416 646q-7 -15 -18 -27t-27 -17l-102 69l-102 -68q-16 5 -27 16.5t-19 26.5l135 110h25zM153 232q3 -45 13.5 -75t28 -48t42 -26t55.5 -8q26 0 48 4.5t38 9.5q18 6 32 15q14 -12 22.5 -31t9.5 -41q-17 -12 -42 -21q-21 -8 -52 -14.5t-72 -6.5q-116 0 -171 69.5
t-55 206.5q0 71 16 122t45 84t70 48.5t91 15.5q93 0 145.5 -50.5t52.5 -150.5q0 -24 -2 -42.5t-4 -32.5q-3 -16 -5 -28h-306zM370 348q0 22 -5 42t-16.5 35t-30 23.5t-46.5 8.5q-49 0 -81 -35.5t-38 -118.5h214q1 6 2 17.5t1 27.5z" />
    <glyph glyph-name="edieresis" unicode="&#xeb;" horiz-adv-x="514" 
d="M230 619q-5 -2 -12 -3q-12 -3 -34 -3q-24 0 -34 3q-6 1 -11 3v82q5 1 11 3q5 1 13.5 2t20.5 1q11 0 19.5 -1t14.5 -2l12 -3v-82zM399 619q-5 -2 -12 -3q-12 -3 -33 -3q-23 0 -35 3q-7 1 -11 3v82q4 1 11 3q6 1 14.5 2t20.5 1q11 0 19 -1t14 -2l12 -3v-82zM153 232
q3 -45 13.5 -75t28 -48t42 -26t55.5 -8q26 0 48 4.5t38 9.5q18 6 32 15q14 -12 22.5 -31t9.5 -41q-17 -12 -42 -21q-21 -8 -52 -14.5t-72 -6.5q-116 0 -171 69.5t-55 206.5q0 71 16 122t45 84t70 48.5t91 15.5q93 0 145.5 -50.5t52.5 -150.5q0 -24 -2 -42.5t-4 -32.5
q-3 -16 -5 -28h-306zM370 348q0 22 -5 42t-16.5 35t-30 23.5t-46.5 8.5q-49 0 -81 -35.5t-38 -118.5h214q1 6 2 17.5t1 27.5z" />
    <glyph glyph-name="igrave" unicode="&#xec;" 
d="M6 741q11 17 37 28.5t50 8.5l95 -141q-9 -13 -24 -20.5t-33 -10.5zM175 7q-6 -2 -13 -4q-12 -3 -37 -3q-26 0 -38 3q-7 2 -12 4v512l12 3q6 2 15 3t23 1q12 0 21.5 -1t15.5 -3q7 -2 13 -3v-512z" />
    <glyph glyph-name="iacute" unicode="&#xed;" 
d="M111 604q-18 3 -33 10.5t-24 20.5l95 141q12 1 25 -1t25 -7.5t21.5 -12.5t15.5 -16zM175 7q-6 -2 -13 -4q-12 -3 -37 -3q-26 0 -38 3q-7 2 -12 4v512l12 3q6 2 15 3t23 1q12 0 21.5 -1t15.5 -3q7 -2 13 -3v-512z" />
    <glyph glyph-name="icircumflex" unicode="&#xee;" 
d="M274 646q-8 -15 -19 -27t-27 -17l-102 69l-102 -68q-16 5 -26.5 16.5t-18.5 26.5l134 110h25zM175 7q-6 -2 -13 -4q-12 -3 -37 -3q-26 0 -38 3q-7 2 -12 4v512l12 3q6 2 15 3t23 1q12 0 21.5 -1t15.5 -3q7 -2 13 -3v-512z" />
    <glyph glyph-name="idieresis" unicode="&#xef;" 
d="M83 621q-5 -2 -12 -3q-6 -1 -14 -1.5t-19 -0.5q-12 0 -20.5 0.5t-14.5 1.5q-7 1 -11 3v82q4 1 11 3q6 1 14.5 2t20.5 1q11 0 19 -1t14 -2l12 -3v-82zM253 621q-5 -2 -12 -3q-6 -1 -14.5 -1.5t-19.5 -0.5q-12 0 -20.5 0.5t-13.5 1.5q-6 1 -11 3v82q5 1 11 3q5 1 13.5 2
t20.5 1q11 0 19.5 -1t14.5 -2l12 -3v-82zM175 7q-6 -2 -13 -4q-12 -3 -37 -3q-26 0 -38 3q-7 2 -12 4v512l12 3q6 2 15 3t23 1q12 0 21.5 -1t15.5 -3q7 -2 13 -3v-512z" />
    <glyph glyph-name="eth" unicode="&#xf0;" horiz-adv-x="555" 
d="M363 656q66 -58 103 -145.5t37 -203.5q0 -92 -15.5 -153t-45 -97.5t-72.5 -51.5t-97 -15q-51 0 -92.5 14t-70.5 45.5t-44.5 81t-15.5 121.5t15.5 121.5t43.5 81t67 45.5t87 14q43 0 74.5 -13t52.5 -36q-12 43 -35 80.5t-59 66.5l-115 -73q-29 24 -35 54l89 56
q-23 12 -48.5 21.5t-54.5 15.5q-2 19 2.5 35.5t18.5 28.5q84 -13 155 -55l80 51q12 -9 21 -23.5t13 -29.5zM273 67q27 0 49.5 8t38 29t24.5 57t9 91q0 56 -9 92t-25 56.5t-39 28.5t-50 8t-49 -8t-37.5 -29t-23.5 -57t-8 -91t8.5 -91t24.5 -57t38 -29t49 -8z" />
    <glyph glyph-name="ntilde" unicode="&#xf1;" horiz-adv-x="549" 
d="M127 667q10 13 23 24q11 9 28 17t40 8q21 0 35.5 -5t26.5 -11.5t23.5 -11.5t26.5 -5q11 0 20 4.5t15 9.5q7 6 12 14q14 -6 24.5 -19t13.5 -27q-10 -14 -23 -25q-11 -9 -28.5 -16.5t-40.5 -7.5q-21 0 -35.5 5t-26.5 11.5t-23.5 11.5t-26.5 5q-12 0 -20.5 -4.5t-14.5 -9.5
q-7 -6 -12 -14q-33 17 -37 46zM173 473q55 63 151 63q75 0 115 -41.5t40 -109.5v-378q-6 -2 -13 -4q-12 -3 -37 -3q-26 0 -38 3q-7 2 -12 4v360q0 42 -22.5 65t-70.5 23q-33 0 -63 -17t-50 -47v-384q-6 -2 -13 -4q-14 -3 -37 -3q-26 0 -38 3q-7 2 -12 4v512l12 3q6 2 15 3
t23 1q12 0 21 -1t16 -3t13 -3v-46z" />
    <glyph glyph-name="ograve" unicode="&#xf2;" horiz-adv-x="544" 
d="M312 635q-9 -13 -24 -20.5t-33 -10.5l-125 135q6 9 15.5 16t21.5 12.5t25.5 7.5t25.5 1zM50 263q0 74 15.5 126t44 84.5t70 47.5t92.5 15q52 0 93 -15t69.5 -47.5t44 -84.5t15.5 -126t-15.5 -126t-44 -84.5t-70 -47.5t-92.5 -15t-92.5 15t-70 47.5t-44 84.5t-15.5 126z
M391 263q0 58 -8.5 95.5t-24 60t-37.5 31.5t-49 9t-49.5 -9t-38 -31.5t-24 -60t-8.5 -95.5t8.5 -95.5t24 -60t38 -31.5t49.5 -9t49 9t37.5 31.5t24 60t8.5 95.5z" />
    <glyph glyph-name="oacute" unicode="&#xf3;" horiz-adv-x="544" 
d="M278 776q12 1 25 -1t25 -7.5t21.5 -12.5t15.5 -16l-125 -135q-18 3 -33 10.5t-24 20.5zM50 263q0 74 15.5 126t44 84.5t70 47.5t92.5 15q52 0 93 -15t69.5 -47.5t44 -84.5t15.5 -126t-15.5 -126t-44 -84.5t-70 -47.5t-92.5 -15t-92.5 15t-70 47.5t-44 84.5t-15.5 126z
M391 263q0 58 -8.5 95.5t-24 60t-37.5 31.5t-49 9t-49.5 -9t-38 -31.5t-24 -60t-8.5 -95.5t8.5 -95.5t24 -60t38 -31.5t49.5 -9t49 9t37.5 31.5t24 60t8.5 95.5z" />
    <glyph glyph-name="ocircumflex" unicode="&#xf4;" horiz-adv-x="544" 
d="M415 646q-8 -15 -19 -27t-26 -17l-103 69l-102 -68q-15 5 -26 16.5t-19 26.5l135 110h25zM50 263q0 74 15.5 126t44 84.5t70 47.5t92.5 15q52 0 93 -15t69.5 -47.5t44 -84.5t15.5 -126t-15.5 -126t-44 -84.5t-70 -47.5t-92.5 -15t-92.5 15t-70 47.5t-44 84.5t-15.5 126z
M391 263q0 58 -8.5 95.5t-24 60t-37.5 31.5t-49 9t-49.5 -9t-38 -31.5t-24 -60t-8.5 -95.5t8.5 -95.5t24 -60t38 -31.5t49.5 -9t49 9t37.5 31.5t24 60t8.5 95.5z" />
    <glyph glyph-name="otilde" unicode="&#xf5;" horiz-adv-x="544" 
d="M123 664q10 13 23 24q11 9 28 17t40 8q21 0 35.5 -5t26.5 -11.5t23.5 -11.5t26.5 -5q11 0 20 4.5t15 9.5q7 6 12 14q14 -6 24.5 -19t12.5 -27q-10 -14 -23 -25q-11 -9 -28 -16.5t-40 -7.5q-21 0 -35.5 5t-26.5 11.5t-23.5 11.5t-26.5 5q-12 0 -20.5 -4.5t-14.5 -9.5
q-7 -6 -12 -14q-33 16 -37 46zM50 263q0 74 15.5 126t44 84.5t70 47.5t92.5 15q52 0 93 -15t69.5 -47.5t44 -84.5t15.5 -126t-15.5 -126t-44 -84.5t-70 -47.5t-92.5 -15t-92.5 15t-70 47.5t-44 84.5t-15.5 126zM391 263q0 58 -8.5 95.5t-24 60t-37.5 31.5t-49 9t-49.5 -9
t-38 -31.5t-24 -60t-8.5 -95.5t8.5 -95.5t24 -60t38 -31.5t49.5 -9t49 9t37.5 31.5t24 60t8.5 95.5z" />
    <glyph glyph-name="odieresis" unicode="&#xf6;" horiz-adv-x="544" 
d="M137 705q4 1 11 3q6 1 14.5 2t20.5 1q11 0 19 -1t14 -2l12 -3v-82q-5 -2 -12 -3q-6 -1 -14 -1.5t-19 -0.5q-12 0 -20.5 0.5t-14.5 1.5q-7 1 -11 3v82zM307 705q5 1 11 3q5 1 13.5 2t20.5 1q11 0 19.5 -1t14.5 -2l12 -3v-82q-5 -2 -12 -3q-6 -1 -14.5 -1.5t-19.5 -0.5
q-12 0 -20.5 0.5t-13.5 1.5q-6 1 -11 3v82zM50 263q0 74 15.5 126t44 84.5t70 47.5t92.5 15q52 0 93 -15t69.5 -47.5t44 -84.5t15.5 -126t-15.5 -126t-44 -84.5t-70 -47.5t-92.5 -15t-92.5 15t-70 47.5t-44 84.5t-15.5 126zM391 263q0 58 -8.5 95.5t-24 60t-37.5 31.5t-49 9
t-49.5 -9t-38 -31.5t-24 -60t-8.5 -95.5t8.5 -95.5t24 -60t38 -31.5t49.5 -9t49 9t37.5 31.5t24 60t8.5 95.5z" />
    <glyph glyph-name="divide" unicode="&#xf7;" horiz-adv-x="534" 
d="M320 405q-5 -2 -13 -4q-14 -3 -39 -3q-28 0 -40 3q-8 2 -12 4v94l12 3q6 2 16 3t24 1q13 0 22.5 -1t16.5 -3q8 -2 13 -3v-94zM63 253q-2 5 -3 10q-3 9 -3 27t3 27q1 5 3 10h409q1 -5 3 -10q1 -5 2 -12t1 -15q0 -9 -1 -15.5t-2 -11.5q-2 -5 -3 -10h-409zM320 81
q-5 -2 -13 -4q-14 -3 -39 -3q-28 0 -40 3q-8 2 -12 4v94l12 3q6 2 16 3t24 1q13 0 22.5 -1t16.5 -3q8 -2 13 -3v-94z" />
    <glyph glyph-name="oslash" unicode="&#xf8;" horiz-adv-x="545" 
d="M421 573q17 -1 32.5 -9.5t25.5 -18.5l-43 -72q29 -32 44 -83.5t15 -126.5q0 -74 -15.5 -126t-44 -84.5t-70 -47.5t-92.5 -15q-63 0 -111 23l-36 -61q-18 1 -33 8.5t-26 19.5l43 72q-29 33 -44.5 84.5t-15.5 126.5q0 74 15.5 126t44.5 84.5t70 47.5t93 15q32 0 60 -5.5
t51 -18.5zM341 439q-27 20 -68 20q-28 0 -50.5 -9t-38 -31.5t-24 -60t-8.5 -95.5q0 -38 5 -65t14 -47zM206 86q14 -11 30.5 -15t36.5 -4q27 0 49 9t37.5 31.5t24 60t8.5 95.5q0 37 -4 64t-12 47z" />
    <glyph glyph-name="ugrave" unicode="&#xf9;" horiz-adv-x="548" 
d="M334 635q-9 -13 -24 -20.5t-33 -10.5l-125 135q11 17 37 28.5t50 8.5zM375 519q5 1 13 3q6 2 15.5 3t21.5 1q13 0 22.5 -1t15.5 -3l12 -3v-512q-5 -2 -12 -4q-12 -3 -38 -3q-25 0 -37 3q-8 2 -13 4v46q-27 -31 -65.5 -47t-85.5 -16q-75 0 -115 41.5t-40 109.5v378
q6 1 13 3q6 2 15 3t22 1t22.5 -1t15.5 -3l12 -3v-360q0 -42 22.5 -65t70.5 -23q33 0 63 16.5t50 47.5v384z" />
    <glyph glyph-name="uacute" unicode="&#xfa;" horiz-adv-x="548" 
d="M250 604q-18 3 -33 10.5t-24 20.5l95 141q12 1 25 -1t25 -7.5t21.5 -12.5t15.5 -16zM69 519q6 1 13 3q6 2 15 3t22 1t22.5 -1t15.5 -3l12 -3v-360q0 -42 22.5 -65t70.5 -23q33 0 63 16.5t50 47.5v384q5 1 13 3q6 2 15.5 3t21.5 1q13 0 22.5 -1t15.5 -3l12 -3v-512
q-5 -2 -12 -4q-12 -3 -38 -3q-25 0 -37 3q-8 2 -13 4v46q-27 -31 -65.5 -47t-85.5 -16q-75 0 -115 41.5t-40 109.5v378z" />
    <glyph glyph-name="ucircumflex" unicode="&#xfb;" horiz-adv-x="548" 
d="M422 646q-8 -15 -19 -27t-26 -17l-102 69l-102 -68q-16 5 -27 16.5t-19 26.5l135 110h25zM69 519q6 1 13 3q6 2 15 3t22 1t22.5 -1t15.5 -3l12 -3v-360q0 -42 22.5 -65t70.5 -23q33 0 63 16.5t50 47.5v384q5 1 13 3q6 2 15.5 3t21.5 1q13 0 22.5 -1t15.5 -3l12 -3v-512
q-5 -2 -12 -4q-12 -3 -38 -3q-25 0 -37 3q-8 2 -13 4v46q-27 -31 -65.5 -47t-85.5 -16q-75 0 -115 41.5t-40 109.5v378z" />
    <glyph glyph-name="udieresis" unicode="&#xfc;" horiz-adv-x="548" 
d="M143 706q5 1 11 3q5 1 13.5 2t20.5 1q11 0 19.5 -1t14.5 -2l12 -3v-82q-5 -2 -12 -3q-12 -3 -34 -3q-24 0 -34 3q-6 1 -11 3v82zM313 706q5 1 11 3q5 1 13.5 2t20.5 1q11 0 19.5 -1t14.5 -2l12 -3v-82q-5 -2 -12 -3q-12 -3 -34 -3q-24 0 -34 3q-6 1 -11 3v82zM375 519
q5 1 13 3q6 2 15.5 3t21.5 1q13 0 22.5 -1t15.5 -3l12 -3v-512q-5 -2 -12 -4q-12 -3 -38 -3q-25 0 -37 3q-8 2 -13 4v46q-27 -31 -65.5 -47t-85.5 -16q-75 0 -115 41.5t-40 109.5v378q6 1 13 3q6 2 15 3t22 1t22.5 -1t15.5 -3l12 -3v-360q0 -42 22.5 -65t70.5 -23
q33 0 63 16.5t50 47.5v384z" />
    <glyph glyph-name="yacute" unicode="&#xfd;" horiz-adv-x="526" 
d="M248 604q-18 3 -33 10.5t-24 20.5l95 141q12 1 25 -1t25 -7.5t21.5 -12.5t15.5 -16zM311 -77q-14 -41 -28 -73.5t-34.5 -54.5t-48.5 -33.5t-68 -11.5q-23 0 -40 5q-9 2 -15 5q0 1 -3.5 11.5t-3.5 25.5q0 17 3.5 28t4.5 12l14 -2q6 -1 14 -1.5t17 -0.5q17 0 30 3.5
t24.5 14.5t22 32t21.5 56l21 61l-16 2t-16 5l-190 512q6 1 14 3q7 2 16 3t22 1t22.5 -1t16.5 -3q8 -2 13 -3l114 -304q18 -53 27 -84q5 -18 8 -33h4l8 32q4 15 10 36.5t14 47.5l99 305l12 3q6 2 15 3t22 1q11 0 19.5 -1t14.5 -3q7 -2 13 -3z" />
    <glyph glyph-name="thorn" unicode="&#xfe;" horiz-adv-x="557" 
d="M85 746q6 2 15 3t22 1t22 -1t16 -3t13 -3v-272q21 31 55.5 48t88.5 17q43 0 77.5 -14t59 -46t38 -84.5t13.5 -128.5q0 -77 -13.5 -129t-38 -84t-59 -46t-77.5 -14q-54 0 -88.5 17t-55.5 48v-280q-6 -2 -13 -3q-14 -3 -38 -3q-25 0 -37 3q-7 1 -12 3v968zM402 263
q0 56 -7.5 93t-22.5 58.5t-37.5 30.5t-52.5 9q-26 0 -46.5 -10t-34.5 -27.5t-21 -40.5t-7 -48v-128q0 -26 7 -49t21 -40.5t34.5 -28t46.5 -10.5q30 0 52.5 9t37.5 30.5t22.5 58.5t7.5 93z" />
    <glyph glyph-name="ydieresis" unicode="&#xff;" horiz-adv-x="526" 
d="M231 625q-5 -2 -12 -3q-12 -3 -33 -3q-25 0 -35 3q-7 1 -11 3v81q4 1 11 3q5 1 14 2t21 1q11 0 19 -1t14 -2l12 -3v-81zM401 625q-5 -2 -12 -3q-12 -3 -34 -3q-24 0 -34 3q-6 1 -11 3v81q5 1 11 3q5 1 13.5 2t20.5 1q11 0 19.5 -1t14.5 -2l12 -3v-81zM311 -77
q-14 -41 -28 -73.5t-34.5 -54.5t-48.5 -33.5t-68 -11.5q-23 0 -40 5q-9 2 -15 5q0 1 -3.5 11.5t-3.5 25.5q0 17 3.5 28t4.5 12l14 -2q6 -1 14 -1.5t17 -0.5q17 0 30 3.5t24.5 14.5t22 32t21.5 56l21 61l-16 2t-16 5l-190 512q6 1 14 3q7 2 16 3t22 1t22.5 -1t16.5 -3
q8 -2 13 -3l114 -304q18 -53 27 -84q5 -18 8 -33h4l8 32q4 15 10 36.5t14 47.5l99 305l12 3q6 2 15 3t22 1q11 0 19.5 -1t14.5 -3q7 -2 13 -3z" />
    <glyph glyph-name="dotlessi" unicode="&#x131;" 
d="M175 7q-6 -2 -13 -4q-12 -3 -37 -3q-26 0 -38 3q-7 2 -12 4v512l12 3q6 2 15 3t23 1q12 0 21.5 -1t15.5 -3q7 -2 13 -3v-512z" />
    <glyph glyph-name="OE" unicode="&#x152;" horiz-adv-x="873" 
d="M58 360q0 97 20 167t57.5 115t91 66.5t120.5 21.5q24 0 46 -2.5t41 -7.5h378q8 -21 8 -41q0 -21 -8 -42h-268v-232h218q8 -19 8 -40t-8 -42h-218v-240h278q8 -22 8 -42t-8 -41h-389q-19 -5 -40 -7.5t-46 -2.5q-67 0 -120.5 21.5t-91 67t-57.5 115.5t-20 166zM443 628
q-22 8 -47 12.5t-49 4.5q-41 0 -74.5 -13.5t-57.5 -46t-37 -87.5t-13 -138t13 -138t37 -87.5t57.5 -46t74.5 -13.5q24 0 49.5 4t46.5 14v535z" />
    <glyph glyph-name="oe" unicode="&#x153;" horiz-adv-x="815" 
d="M469 232q7 -89 37 -125t90 -36q26 0 47 4t37 9q18 6 33 14q14 -11 21 -28.5t9 -37.5q-16 -12 -40 -21q-20 -8 -50.5 -14.5t-72.5 -6.5q-109 0 -155 85q-50 -85 -154 -85q-51 0 -92 15t-69.5 47.5t-44 84.5t-15.5 126t15.5 126t44 84.5t69.5 47.5t92 15q53 0 92 -20.5
t62 -67.5q25 46 63.5 67t87.5 21q91 0 143 -50.5t52 -150.5q0 -24 -2 -42.5t-4 -32.5q-3 -16 -5 -28h-291zM271 459q-27 0 -49 -9t-37 -31.5t-23.5 -60t-8.5 -95.5t8.5 -95.5t23.5 -60t37 -31.5t49 -9t47 9t33.5 31.5t20.5 60.5t7 96t-7 95.5t-20.5 59.5t-33.5 31t-47 9z
M671 348q0 22 -4.5 42t-15.5 35t-29.5 23.5t-45.5 8.5q-47 0 -73.5 -35t-32.5 -119h198q1 6 2 17.5t1 27.5z" />
    <glyph glyph-name="Scaron" unicode="&#x160;" horiz-adv-x="568" 
d="M152 877q7 15 18.5 27t27.5 17l105 -71l104 70q16 -5 27 -16.5t19 -26.5l-137 -108h-26zM313 644q-80 0 -118.5 -29.5t-38.5 -84.5q0 -29 15 -48t39.5 -32.5t57 -23.5t67.5 -22t68.5 -27t60 -38t42.5 -57t16 -83q0 -101 -63.5 -155t-187.5 -54q-50 0 -90 6.5t-68 14.5
q-33 9 -58 21q0 21 6.5 42.5t17.5 38.5q28 -9 59 -16q26 -6 59.5 -10.5t68.5 -4.5q152 0 152 114q0 30 -12.5 50t-34 34t-49.5 24.5t-58 19.5q-38 12 -75 25.5t-67 35.5t-48.5 55.5t-18.5 84.5q0 46 15 84t45.5 65t76.5 41.5t107 14.5q45 0 81 -4.5t62 -9.5q30 -6 53 -14
q0 -22 -7 -43t-21 -37q-20 6 -45 11q-21 4 -49 7.5t-60 3.5z" />
    <glyph glyph-name="scaron" unicode="&#x161;" horiz-adv-x="446" 
d="M93 706q7 14 17.5 24.5t24.5 15.5l95 -64l94 64q14 -5 24.5 -15.5t17.5 -24.5l-124 -102h-24zM50 379q0 71 46 114t142 43q37 0 63.5 -4.5t43.5 -9.5q20 -6 34 -13q0 -20 -6.5 -39.5t-19.5 -31.5q-14 4 -31 8q-14 3 -33.5 5.5t-40.5 2.5q-102 0 -102 -72q0 -17 9.5 -29
t25 -20.5t35.5 -15t42 -12.5q26 -8 52.5 -18.5t47.5 -27.5t34 -43.5t13 -65.5q0 -76 -47 -118t-143 -42q-40 0 -70.5 5.5t-52.5 12.5q-26 8 -44 18q0 22 6.5 41.5t20.5 32.5q19 -8 41 -13q19 -5 43.5 -8.5t50.5 -3.5q46 0 71 17.5t25 54.5q0 21 -9.5 34t-25 22t-35.5 15.5
t-42 12.5q-26 7 -51.5 17t-46 26.5t-33.5 41.5t-13 63z" />
    <glyph glyph-name="Ydieresis" unicode="&#x178;" horiz-adv-x="634" 
d="M192 850q4 1 11 3q6 1 14.5 2t20.5 1q11 0 19 -1t14 -2l12 -3v-82q-5 -2 -12 -3q-12 -3 -33 -3q-23 0 -35 3q-7 1 -11 3v82zM362 850q4 1 11 3q5 1 14 2t21 1q11 0 19 -1t14 -2l12 -3v-82q-5 -2 -12 -3q-12 -3 -33 -3q-25 0 -35 3q-7 1 -11 3v82zM510 713q5 1 13 3
q7 2 16.5 3t23.5 1q13 0 23 -1t18 -3q9 -2 16 -3l-253 -412v-294q-6 -2 -13 -4q-12 -3 -37 -3q-28 0 -40 3q-8 2 -12 4v292l-246 414q6 1 16 3q8 2 19.5 3t26.5 1q14 0 24.5 -1t18.5 -3l15 -3l183 -309z" />
    <glyph glyph-name="Zcaron" unicode="&#x17d;" horiz-adv-x="594" 
d="M405 914q16 -5 27 -17t19 -27l-137 -113h-26l-138 113q8 15 19 27.5t27 17.5l105 -71zM532 720q7 -16 7 -43q0 -13 -2 -25t-5 -21l-376 -541h389q2 -8 4 -19t2 -24q0 -14 -2 -25l-4 -22h-501q-8 22 -8 46q0 25 8 44l371 541h-344q-2 10 -4 22t-2 25t2 23.5t4 18.5h461z
" />
    <glyph glyph-name="zcaron" unicode="&#x17e;" horiz-adv-x="467" 
d="M106 704q7 14 17.5 25t24.5 16l94 -64l95 63q14 -4 24 -15t17 -25l-124 -102h-23zM415 82q1 -4 3 -10q1 -5 2 -13t1 -18t-1 -17.5t-2 -12.5q-2 -6 -3 -11h-371q-2 9 -4 20t-2 23t2 21.5t4 17.5l266 362h-249q-2 6 -3 12q-3 10 -3 30q0 19 3 30q1 6 3 10h354q6 -14 6 -39
q0 -12 -1.5 -23.5t-4.5 -19.5l-265 -362h265z" />
    <glyph glyph-name="florin" unicode="&#x192;" horiz-adv-x="462" 
d="M231 15q-4 -36 -14 -65t-28.5 -49t-47.5 -30.5t-71 -10.5q-23 0 -42 3t-33 7q-16 4 -29 11q2 20 7.5 36t17.5 30q10 -3 21 -6q22 -5 52 -5q32 0 49.5 16.5t22.5 58.5l37 387h-81q-2 5 -3 10q-3 9 -3 26t3 26q1 5 3 10h88l7 66q3 36 13 65t28.5 49t47.5 30.5t71 10.5
q23 0 42.5 -3.5t33.5 -7.5q16 -4 28 -10q-1 -39 -25 -65q-10 2 -21 5q-10 2 -23 4t-29 2q-33 0 -50 -17t-21 -59l-7 -70h86q1 -5 3 -10q1 -5 2 -11.5t1 -14.5t-1 -14.5t-2 -11.5q-2 -5 -3 -10h-93z" />
    <glyph glyph-name="uni0237" unicode="&#x237;" 
d="M75 519l12 3q6 2 15 3t23 1q12 0 21.5 -1t15.5 -3q7 -2 13 -3v-607q0 -80 -37 -121t-108 -41q-16 0 -28.5 1t-20.5 3q-11 2 -18 5q-1 3 -2 7t-1 16q0 26 5 39q2 7 5 12q5 -1 11 -2q5 -1 11.5 -1.5t14.5 -0.5q34 0 51 18.5t17 60.5v611z" />
    <glyph glyph-name="circumflex" unicode="&#x2c6;" horiz-adv-x="396" 
d="M348 606q-8 -15 -19 -27.5t-27 -17.5l-105 71l-104 -70q-30 10 -46 44l137 113h26z" />
    <glyph glyph-name="tilde" unicode="&#x2dc;" horiz-adv-x="327" 
d="M226 685q11 0 20.5 4t15.5 9q7 6 12 14q14 -6 24 -18.5t13 -27.5q-10 -13 -23 -24q-11 -9 -28 -16.5t-40 -7.5q-22 0 -36.5 5t-26 11.5t-23 11.5t-26.5 5q-12 0 -21 -4.5t-15 -9.5q-7 -6 -12 -14q-31 16 -37 46q10 13 23 24q11 9 28 17t40 8q22 0 36.5 -5t26 -11.5
t23 -11.5t26.5 -5z" />
    <glyph glyph-name="endash" unicode="&#x2013;" horiz-adv-x="558" 
d="M75 253q-2 5 -3 10q-3 9 -3 27t3 27q1 5 3 10h408q1 -5 3 -10q1 -5 2 -12t1 -15q0 -9 -1 -15.5t-2 -11.5q-2 -5 -3 -10h-408z" />
    <glyph glyph-name="emdash" unicode="&#x2014;" horiz-adv-x="808" 
d="M75 253q-2 5 -3 10q-3 9 -3 27t3 27q1 5 3 10h658q1 -5 3 -10q1 -5 2 -12t1 -15q0 -9 -1 -15.5t-2 -11.5q-2 -5 -3 -10h-658z" />
    <glyph glyph-name="quoteleft" unicode="&#x2018;" horiz-adv-x="228" 
d="M167 695q-9 -11 -17 -26q-7 -13 -12.5 -31.5t-7.5 -43.5q18 -2 26 -3q5 -1 8 -2v-95q-6 -2 -13 -3q-14 -3 -39 -3q-26 0 -39 3q-8 1 -13 3v63q0 41 10.5 71.5t24.5 50.5q16 24 36 41z" />
    <glyph glyph-name="quoteright" unicode="&#x2019;" horiz-adv-x="220" 
d="M60 513q9 10 17 25q7 13 12.5 31t7.5 43q-19 2 -25 4q-4 1 -8 3v94l12 3q6 2 16 3t24 1q13 0 22.5 -1t16.5 -3q8 -2 13 -3v-62q0 -41 -11 -71.5t-25 -50.5q-16 -24 -36 -41z" />
    <glyph glyph-name="quotesinglbase" unicode="&#x201a;" horiz-adv-x="235" 
d="M61 -100q9 11 17 26q7 13 12.5 31t7.5 43q-9 0 -15 1t-10 3t-8 3v94l12 3q6 2 16 3t24 1q13 0 22.5 -1t16.5 -3q8 -2 13 -3v-63q0 -41 -11 -71.5t-25 -50.5q-16 -24 -36 -41z" />
    <glyph glyph-name="quotedblleft" unicode="&#x201c;" horiz-adv-x="351" 
d="M307 695q-9 -10 -17 -25q-7 -13 -12.5 -31.5t-7.5 -42.5q8 -1 14.5 -2t10.5 -2q4 -2 8 -3v-94q-5 -2 -12 -4q-12 -3 -40 -3q-25 0 -38 3q-8 2 -14 4v62q0 41 11 71.5t25 50.5q16 24 36 41zM164 695q-9 -10 -17 -25q-7 -13 -12.5 -31.5t-7.5 -42.5q8 -1 14.5 -2t10.5 -2
q4 -2 8 -3v-94q-5 -2 -12 -4q-12 -3 -40 -3q-26 0 -39 3q-8 2 -13 4v62q0 41 11 71.5t25 50.5q16 24 36 41z" />
    <glyph glyph-name="quotedblright" unicode="&#x201d;" horiz-adv-x="362" 
d="M60 513q9 10 17 25q7 13 12.5 31t7.5 43q-19 2 -25 4q-4 1 -8 3v94l12 3q6 2 16 3t24 1q12 0 21.5 -1t16.5 -3q8 -2 14 -3v-62q0 -41 -11 -71.5t-25 -50.5q-16 -24 -36 -41zM203 513q9 10 17 25q7 13 12.5 31t7.5 43q-19 2 -25 4q-4 1 -8 3v94l12 3q6 2 16 3t24 1
q13 0 22.5 -1t16.5 -3q8 -2 13 -3v-62q0 -41 -11 -71.5t-25 -50.5q-16 -24 -36 -41z" />
    <glyph glyph-name="quotedblbase" unicode="&#x201e;" horiz-adv-x="378" 
d="M61 -100q9 11 17 26q7 13 12.5 31t7.5 43q-9 0 -15 1t-10 3t-8 3v94l12 3q6 2 16 3t24 1q13 0 22.5 -1t16.5 -3q8 -2 13 -3v-63q0 -41 -11 -71.5t-25 -50.5q-16 -24 -36 -41zM205 -100q9 11 17 26q7 13 12.5 31t7.5 43q-9 0 -15 1t-10 3t-8 3v94l12 3q6 2 16 3t24 1
q12 0 21.5 -1t16.5 -3q8 -2 14 -3v-63q0 -41 -11 -71.5t-25 -50.5q-16 -24 -36 -41z" />
    <glyph glyph-name="dagger" unicode="&#x2020;" horiz-adv-x="562" 
d="M245 -104l7 525l-220 -7q-2 5 -3 11q-1 5 -1.5 12.5t-0.5 15.5q0 9 0.5 16t1.5 12t3 10l220 -7l-7 213l12 2q5 1 12.5 1.5t16.5 0.5q8 0 16 -0.5t13 -1.5q6 -1 11 -2l-7 -213l212 7q1 -5 2 -11q1 -5 2 -12t1 -15q0 -9 -1 -16t-2 -12q-1 -6 -2 -11l-212 7l7 -525l-39 -23z
" />
    <glyph glyph-name="daggerdbl" unicode="&#x2021;" horiz-adv-x="639" 
d="M573 165q1 -5 2 -11q1 -5 1.5 -12.5t0.5 -15.5q0 -10 -0.5 -17t-1.5 -12t-2 -9l-220 7l7 -213l-12 -2q-5 -1 -12.5 -1.5t-16.5 -0.5t-16.5 0.5t-12.5 1.5q-6 1 -11 2l7 213l-219 -7q-2 4 -3 10q-1 5 -1.5 12t-0.5 16t0.5 16t1.5 12q1 6 3 11l219 -7l-7 131l7 132l-220 -7
q-1 5 -2 11q-1 5 -1.5 12t-0.5 16q0 10 0.5 17t1.5 12t2 9l220 -7l-7 213q5 1 11 2q5 1 13 1.5t17 0.5t16.5 -0.5t12.5 -1.5q6 -1 11 -2l-7 -213l219 7q1 -4 2 -10q1 -5 2 -12.5t1 -15.5q0 -9 -1 -16.5t-2 -12.5q-1 -6 -2 -10l-219 7l7 -132l-7 -131z" />
    <glyph glyph-name="bullet" unicode="&#x2022;" horiz-adv-x="340" 
d="M254 282q0 -38 -24 -60t-59 -22q-36 0 -60.5 22t-24.5 60t24.5 60.5t60.5 22.5q35 0 59 -22.5t24 -60.5z" />
    <glyph glyph-name="ellipsis" unicode="&#x2026;" horiz-adv-x="642" 
d="M169 7q-5 -2 -13 -4q-14 -3 -39 -3q-28 0 -40 3q-8 2 -12 4v94l12 3q6 2 16 3t24 1q13 0 22.5 -1t16.5 -3q8 -2 13 -3v-94zM374 7q-5 -2 -13 -4q-14 -3 -39 -3q-28 0 -40 3q-8 2 -12 4v94l12 3q6 2 16 3t24 1q13 0 22.5 -1t16.5 -3q8 -2 13 -3v-94zM577 7q-5 -2 -13 -4
q-14 -3 -39 -3q-28 0 -40 3q-8 2 -12 4v94l12 3q6 2 16 3t24 1q13 0 22.5 -1t16.5 -3q8 -2 13 -3v-94z" />
    <glyph glyph-name="perthousand" unicode="&#x2030;" horiz-adv-x="1088" 
d="M231 -4q-4 -2 -10 -3q-11 -3 -30 -3t-29 3q-6 1 -10 3l387 700l9 3q5 1 12 2t18 1q10 0 17 -1t12 -2q5 -2 10 -3zM179 345q-66 0 -101.5 39.5t-35.5 133.5q0 93 35.5 133t101.5 40q64 0 100.5 -39.5t36.5 -133.5t-36.5 -133.5t-100.5 -39.5zM179 633q-15 0 -26.5 -5
t-20 -18t-12.5 -35.5t-4 -56.5q0 -35 4 -57.5t12.5 -35t20 -17t26.5 -4.5q14 0 25.5 4.5t19.5 17t12.5 35t4.5 57.5q0 34 -4.5 56.5t-12.5 35.5t-19.5 18t-25.5 5zM585 -10q-65 0 -100.5 39.5t-35.5 133.5q0 93 35.5 133t100.5 40q64 0 100.5 -39.5t36.5 -133.5
t-36.5 -133.5t-100.5 -39.5zM912 -10q-65 0 -100.5 39.5t-35.5 133.5q0 93 35.5 133t100.5 40q64 0 101 -39.5t37 -133.5t-37 -133.5t-101 -39.5zM585 278q-15 0 -26.5 -5t-19.5 -18t-12.5 -35.5t-4.5 -56.5q0 -35 4.5 -57.5t12.5 -35t19.5 -17t26.5 -4.5t26.5 4.5t19.5 17
t12 35t4 57.5q0 34 -4 56.5t-12 35.5t-19.5 18t-26.5 5zM912 278q-15 0 -26.5 -5t-19.5 -18t-12 -35.5t-4 -56.5q0 -35 4 -57.5t12 -35t19.5 -17t26.5 -4.5t26.5 4.5t19.5 17t12 35t4 57.5q0 34 -4 56.5t-12 35.5t-19.5 18t-26.5 5z" />
    <glyph glyph-name="guilsinglleft" unicode="&#x2039;" horiz-adv-x="340" 
d="M256 509q13 -10 21.5 -26t11.5 -33l-156 -181l156 -180q-3 -17 -11.5 -33t-21.5 -26l-203 196q-2 5 -4 11q-3 10 -3 29q0 21 3 33q2 7 4 12z" />
    <glyph glyph-name="guilsinglright" unicode="&#x203a;" horiz-adv-x="340" 
d="M287 311l3 -12q2 -6 3 -14t1 -19q0 -10 -1 -17t-3 -12q-2 -6 -3 -11l-203 -196q-13 10 -21.5 26t-11.5 33l156 180l-156 181q3 17 11.5 33t21.5 26z" />
    <glyph glyph-name="Euro" unicode="&#x20ac;" horiz-adv-x="592" 
d="M133 447q20 115 82.5 174t170.5 59q37 0 65 -5t47 -11q22 -7 38 -16q-1 -23 -7.5 -39.5t-21.5 -29.5q-14 6 -32 10q-15 4 -35.5 7t-43.5 3q-30 0 -56 -7.5t-47 -25t-36 -47t-23 -72.5h244q4 -14 0.5 -32t-11.5 -31h-242q-1 -12 -1 -24v-26v-24.5t1 -21.5h212
q4 -15 0.5 -33t-11.5 -31h-193q8 -44 23 -73.5t36 -47t47.5 -24.5t56.5 -7q26 0 48 3t39 7q18 4 34 11q16 -12 22 -31.5t6 -39.5q-17 -9 -41 -16q-20 -6 -49.5 -11t-68.5 -5q-215 0 -253 234h-85q-3 14 0.5 32.5t11.5 31.5h66q-1 11 -1.5 22.5t-0.5 24.5v24.5t2 24.5h-78
q-3 14 0.5 32t11.5 31h73v0z" />
    <glyph glyph-name="trademark" unicode="&#x2122;" horiz-adv-x="621" 
d="M243 720q4 -7 4 -17q0 -5 -1 -9t-3 -9h-79v-249q-2 -1 -6 -2q-8 -2 -16 -2q-10 0 -16 2q-3 1 -5 2v249h-81q-3 9 -3 17q0 5 0.5 9t2.5 9h203zM288 716q3 1 7 2q8 2 19 2q8 0 12.5 -1t12.5 -3l43 -85q11 -23 20 -43.5t14 -33.5q5 11 14 30t20 42l43 90q5 1 9 2q10 2 18 2
q10 0 20 -2q4 -1 7 -2v-280q-2 -1 -5 -2q-6 -2 -15 -2q-10 0 -16 2q-4 1 -5 2v117q0 37 -0.5 62t1.5 49l-29 -63l-45 -89q-2 -1 -5 -2t-13 -1q-11 0 -14 1t-4 2l-43 88q-10 20 -16.5 34t-12.5 30q1 -17 1.5 -45t0.5 -66v-117q-2 -1 -5 -2q-6 -2 -15 -2q-8 0 -14 2q-3 1 -5 2
v280z" />
    </font>
</defs>
</svg>
